<?xml version="1.0" encoding="UTF-8" standalone="no"?>
<!-- Created with Inkscape (http://www.inkscape.org/) -->

<svg
   xmlns:dc="http://purl.org/dc/elements/1.1/"
   xmlns:cc="http://creativecommons.org/ns#"
   xmlns:rdf="http://www.w3.org/1999/02/22-rdf-syntax-ns#"
   xmlns:svg="http://www.w3.org/2000/svg"
   xmlns="http://www.w3.org/2000/svg"
   xmlns:xlink="http://www.w3.org/1999/xlink"
   xmlns:sodipodi="http://sodipodi.sourceforge.net/DTD/sodipodi-0.dtd"
   xmlns:inkscape="http://www.inkscape.org/namespaces/inkscape"
   width="1000"
   height="1000"
   viewBox="0 0 1000 1000"
   id="svg2"
   version="1.1"
   inkscape:version="0.91 r13725"
   sodipodi:docname="colores.svg"
   inkscape:export-filename="C:\Users\Usuario\Pictures\imgs embera\colores.png"
   inkscape:export-xdpi="90"
   inkscape:export-ydpi="90">
  <defs
     id="defs4">
    <linearGradient
       inkscape:collect="always"
       id="linearGradient4215">
      <stop
         style="stop-color:#535d6c;stop-opacity:0.36024845"
         offset="0"
         id="stop4217" />
      <stop
         style="stop-color:#535d6c;stop-opacity:0;"
         offset="1"
         id="stop4219" />
    </linearGradient>
    <linearGradient
       inkscape:collect="always"
       xlink:href="#linearGradient4215"
       id="linearGradient4221"
       x1="100"
       y1="891.42859"
       x2="882.85712"
       y2="88.571442"
       gradientUnits="userSpaceOnUse"
       gradientTransform="matrix(0.98614958,0,0,0.98876405,14.048279,0)" />
  </defs>
  <sodipodi:namedview
     id="base"
     pagecolor="#ffffff"
     bordercolor="#666666"
     borderopacity="1.0"
     inkscape:pageopacity="0.0"
     inkscape:pageshadow="2"
     inkscape:zoom="0.35"
     inkscape:cx="-125.15625"
     inkscape:cy="631.42857"
     inkscape:document-units="px"
     inkscape:current-layer="layer1"
     showgrid="false"
     units="px"
     inkscape:window-width="1360"
     inkscape:window-height="706"
     inkscape:window-x="-8"
     inkscape:window-y="-8"
     inkscape:window-maximized="1" />
  <metadata
     id="metadata7">
    <rdf:RDF>
      <cc:Work
         rdf:about="">
        <dc:format>image/svg+xml</dc:format>
        <dc:type
           rdf:resource="http://purl.org/dc/dcmitype/StillImage" />
        <dc:title></dc:title>
      </cc:Work>
    </rdf:RDF>
  </metadata>
  <g
     inkscape:groupmode="layer"
     id="layer2"
     inkscape:label="Capa 2" />
  <g
     inkscape:label="Capa 1"
     inkscape:groupmode="layer"
     id="layer1"
     transform="translate(0,-52.362161)">
    <path
       style="font-style:normal;font-variant:normal;font-weight:normal;font-stretch:normal;font-size:medium;line-height:125%;font-family:'Cooper Black';-inkscape-font-specification:'Cooper Black, ';letter-spacing:0px;word-spacing:0px;fill:#000000;fill-opacity:1;stroke:none;stroke-width:1px;stroke-linecap:butt;stroke-linejoin:miter;stroke-opacity:1"
       inkscape:connector-curvature="0"
       id="path3343"
       d="m 412.85869,158.34263 0,35.4126 q 0,23.49808 0.57866,27.35927 0.67512,3.86119 4.82226,5.95726 3.56848,1.76512 4.72583,3.30959 1.25378,1.54448 1.25378,4.41279 0,3.64055 -2.31469,6.61918 -2.21823,2.97863 -5.9796,4.19214 -6.94405,2.42704 -23.43619,2.42704 -18.61392,0 -26.13665,-3.19927 -3.47202,-1.43416 -5.69027,-4.41279 -2.21823,-3.08895 -2.21823,-6.39854 0,-2.64767 1.15734,-4.08182 1.25378,-1.43417 5.30449,-3.41992 3.76136,-1.87543 4.62937,-10.25972 1.54312,-14.34155 1.54312,-40.81827 0,-26.918 -1.35023,-34.64037 -1.35023,-7.72238 -6.75117,-11.47325 -4.0507,-2.64767 -5.59382,-4.96438 -1.44668,-2.42703 -1.44668,-5.84694 0,-5.40566 4.53293,-9.37717 4.53292,-4.08183 14.46678,-7.50174 6.65472,-2.316714 17.26369,-4.412794 10.60897,-2.09607 15.43123,-2.09607 7.61917,0 7.61917,10.811334 0,3.53023 -0.96445,16.21699 -1.25378,19.74721 -1.44667,36.18485 z" />
    <path
       style="font-style:normal;font-variant:normal;font-weight:normal;font-stretch:normal;font-size:medium;line-height:125%;font-family:'Cooper Black';-inkscape-font-specification:'Cooper Black, ';letter-spacing:0px;word-spacing:0px;fill:#000000;fill-opacity:1;stroke:none;stroke-width:1px;stroke-linecap:butt;stroke-linejoin:miter;stroke-opacity:1"
       inkscape:connector-curvature="0"
       id="path3345"
       d="m 489.62907,160.40885 q 17.64947,0 30.95891,10.48036 9.54808,7.50174 15.33479,19.52658 5.9796,12.57644 5.9796,26.25608 0,23.93936 -19.19259,40.70795 -18.32459,15.99635 -41.95367,15.99635 -23.05041,0 -37.32429,-15.00347 -13.88811,-14.5622 -13.88811,-37.94996 0,-26.03544 16.97435,-42.58339 17.74592,-17.4305 43.11101,-17.4305 z m -7.71561,25.48383 q -4.2436,0 -6.84761,3.64055 -2.50758,3.53023 -2.50758,9.48749 0,6.61919 2.12179,18.09243 2.21825,11.36291 5.20805,20.18849 2.9898,9.04621 9.74096,9.04621 8.58363,0 8.58363,-12.46611 0,-9.26685 -2.21825,-21.07106 -2.12179,-11.80421 -5.20804,-19.19562 -3.18269,-7.50174 -8.87295,-7.72238 z" />
    <path
       style="font-style:normal;font-variant:normal;font-weight:normal;font-stretch:normal;font-size:medium;line-height:125%;font-family:'Cooper Black';-inkscape-font-specification:'Cooper Black, ';letter-spacing:0px;word-spacing:0px;fill:#000000;fill-opacity:1;stroke:none;stroke-width:1px;stroke-linecap:butt;stroke-linejoin:miter;stroke-opacity:1"
       inkscape:connector-curvature="0"
       id="path3347"
       d="m 587.32808,150.23345 q 4.82225,0 15.72056,2.42702 2.21824,0.44129 3.66492,0.44129 1.63957,0 6.36538,-1.98576 2.21825,-0.99287 3.76137,-0.99287 4.43648,0 8.9694,6.50885 3.66492,5.18502 5.97961,11.36293 2.31468,6.1779 2.31468,10.701 0,4.41279 -2.70047,7.39143 -2.70046,2.8683 -6.75116,2.8683 -3.37558,0 -6.07605,-1.87543 -2.60402,-1.87544 -8.48718,-8.27398 -6.17249,-6.83981 -10.22319,-6.83981 -2.70046,0 -4.72582,2.31671 -1.9289,2.2064 -1.9289,5.29534 0,5.40566 9.06585,10.14941 16.29924,8.38429 24.97931,18.31306 7.32984,8.38429 7.32984,20.51946 0,15.33443 -11.76632,25.59415 -10.12675,8.9359 -24.78642,8.9359 -3.76137,0 -13.69521,-1.43416 -9.3552,-1.21352 -10.51254,-1.21352 -1.25378,0 -2.89335,0.33097 -2.79692,0.44128 -4.0507,0.44128 -4.53293,0 -7.13695,-2.64768 -3.95425,-4.08183 -7.32983,-12.79708 -3.37559,-8.82557 -3.37559,-15.11379 0,-10.14941 6.94406,-10.14941 2.70046,0 4.91871,2.09607 2.31468,1.98576 9.54807,10.81133 3.95426,4.85407 6.55828,6.7295 2.60401,1.76511 5.59382,1.76511 3.18269,0 5.11159,-1.87543 1.9289,-1.98575 1.9289,-5.18502 0,-4.96439 -7.42627,-9.04622 -15.52769,-8.71525 -22.47174,-17.9821 -6.8476,-9.26685 -6.8476,-21.40201 0,-13.12804 7.04049,-22.61553 10.0303,-13.56931 27.39045,-13.56931 z" />
    <path
       style="font-style:normal;font-variant:normal;font-weight:normal;font-stretch:normal;font-size:medium;line-height:125%;font-family:'Cooper Black';-inkscape-font-specification:'Cooper Black, ';letter-spacing:0px;word-spacing:0px;fill:#000000;fill-opacity:1;stroke:none;stroke-width:1px;stroke-linecap:butt;stroke-linejoin:miter;stroke-opacity:1"
       inkscape:connector-curvature="0"
       id="path3349"
       d="m 217.89177,355.58972 q 17.07331,-1.7934 31.14379,6.60108 13.35296,8.02615 14.80507,21.85038 1.00265,9.54529 -4.13007,16.07447 -4.78361,6.15973 -12.36111,6.95568 -7.96115,0.83625 -12.68116,-5.32355 -1.4659,-1.95364 -4.76276,-10.25959 -3.55785,-8.94411 -10.84757,-8.17839 -5.27547,0.55414 -8.36715,6.20336 -2.99577,5.63915 -2.18905,13.31927 1.38297,13.16593 10.70367,22.50305 7.57858,7.52342 17.74583,6.45545 4.79588,-0.50377 7.96488,-1.72405 3.15748,-1.33 8.1333,-4.73676 1.26217,-0.90907 2.89277,-1.08035 3.26119,-0.34256 6.12384,2.9064 2.86264,3.24896 3.3582,7.96675 0.51861,4.93722 -2.4541,10.7958 -2.98424,5.74887 -8.31287,10.41288 -11.54731,10.08708 -28.5247,11.8704 -19.75901,2.07551 -35.05002,-9.6295 -19.5924,-14.80284 -22.3007,-40.58611 -2.60458,-24.79583 12.2835,-42.77682 14.18988,-17.24209 36.82641,-19.61985 z" />
    <path
       style="font-style:normal;font-variant:normal;font-weight:normal;font-stretch:normal;font-size:medium;line-height:125%;font-family:'Cooper Black';-inkscape-font-specification:'Cooper Black, ';letter-spacing:0px;word-spacing:0px;fill:#000000;fill-opacity:1;stroke:none;stroke-width:1px;stroke-linecap:butt;stroke-linejoin:miter;stroke-opacity:1"
       inkscape:connector-curvature="0"
       id="path3351"
       d="m 330.64824,386.72767 q 17.5529,-1.84378 31.88436,7.18885 10.27951,6.46324 17.29075,17.81777 7.2607,11.88296 8.68976,25.48775 2.50086,23.80838 -14.83498,42.4902 -16.55324,17.82312 -40.05303,20.29156 -22.92428,2.40799 -38.68743,-11.02224 -15.33338,-13.03169 -17.77661,-36.29148 -2.71982,-25.89299 12.43296,-44.12364 15.82791,-19.18898 41.05422,-21.83877 z m -5.01121,26.15041 q -4.22036,0.44331 -6.42983,4.33598 -2.12506,3.77287 -1.50272,9.69753 0.69148,6.58297 4.00023,17.77178 3.39314,11.06901 7.28856,19.53396 3.91847,8.68438 10.6327,7.97911 8.53664,-0.89669 7.23436,-13.29459 -0.96808,-9.21615 -4.40731,-20.72404 -3.34333,-11.51796 -7.18484,-18.54653 -3.94896,-7.12821 -9.63115,-6.7532 z" />
    <path
       style="font-style:normal;font-variant:normal;font-weight:normal;font-stretch:normal;font-size:medium;line-height:125%;font-family:'Cooper Black';-inkscape-font-specification:'Cooper Black, ';letter-spacing:0px;word-spacing:0px;fill:#000000;fill-opacity:1;stroke:none;stroke-width:1px;stroke-linecap:butt;stroke-linejoin:miter;stroke-opacity:1"
       inkscape:connector-curvature="0"
       id="path3353"
       d="m 454.31571,410.42621 1.32733,35.38772 q 0.88076,23.48157 1.60374,27.31835 0.81936,3.83318 5.04217,5.77233 3.63213,1.63013 4.84654,3.13013 1.3108,1.49639 1.41831,4.36269 0.13646,3.63799 -2.06495,6.70129 -2.10504,3.05968 -5.81829,4.41332 -6.84819,2.68562 -23.32872,3.30377 -18.60085,0.69769 -26.23823,-2.21737 -3.52332,-1.30301 -5.85166,-4.1964 -2.33245,-3.00363 -2.45651,-6.3109 -0.0992,-2.64581 1.00354,-4.12233 1.19915,-1.48015 5.17257,-3.61634 3.68842,-2.0151 4.24157,-10.42604 1.00451,-14.3893 0.0121,-40.84742 -1.00894,-26.89908 -2.64768,-34.56542 -1.63874,-7.66634 -7.17646,-11.21213 -4.1471,-2.49398 -5.77596,-4.75123 -1.53664,-2.3711 -1.66483,-5.7886 -0.20262,-5.40187 4.17826,-9.54049 4.37674,-4.24887 14.17544,-8.03871 6.56321,-2.56451 17.08616,-5.05677 10.52296,-2.49225 15.34183,-2.67299 7.61381,-0.28559 8.01904,10.51816 0.13232,3.52773 -0.35592,16.24173 -0.51275,19.78033 -0.0894,36.21365 z" />
    <path
       style="font-style:normal;font-variant:normal;font-weight:normal;font-stretch:normal;font-size:medium;line-height:125%;font-family:'Cooper Black';-inkscape-font-specification:'Cooper Black, ';letter-spacing:0px;word-spacing:0px;fill:#000000;fill-opacity:1;stroke:none;stroke-width:1px;stroke-linecap:butt;stroke-linejoin:miter;stroke-opacity:1"
       inkscape:connector-curvature="0"
       id="path3355"
       d="m 526.39115,394.89526 q 17.55291,-1.84378 31.88437,7.18885 10.27951,6.46324 17.29075,17.81778 7.2607,11.88295 8.68976,25.48774 2.50086,23.80837 -14.83499,42.49019 -16.55323,17.82313 -40.05303,20.29157 -22.92427,2.40799 -38.68742,-11.02225 -15.33339,-13.03168 -17.77662,-36.29147 -2.71982,-25.89298 12.43296,-44.12364 15.82792,-19.18898 41.05422,-21.83877 z m -5.0112,26.15042 q -4.22036,0.44331 -6.42983,4.33597 -2.12506,3.77287 -1.50273,9.69753 0.69149,6.58297 4.00024,17.77178 3.39314,11.06902 7.28856,19.53397 3.91847,8.68438 10.63269,7.97911 8.53665,-0.89669 7.23436,-13.29461 -0.96807,-9.21614 -4.4073,-20.72403 -3.34333,-11.51796 -7.18485,-18.54653 -3.94896,-7.1282 -9.63114,-6.75319 z" />
    <path
       style="font-style:normal;font-variant:normal;font-weight:normal;font-stretch:normal;font-size:medium;line-height:125%;font-family:'Cooper Black';-inkscape-font-specification:'Cooper Black, ';letter-spacing:0px;word-spacing:0px;fill:#000000;fill-opacity:1;stroke:none;stroke-width:1px;stroke-linecap:butt;stroke-linejoin:miter;stroke-opacity:1"
       inkscape:connector-curvature="0"
       id="path3357"
       d="m 633.50119,390.16651 q 5.08362,-0.53399 6.31159,1.00092 1.32388,1.52484 3.12063,10.32117 0.98668,4.77712 3.48054,4.51516 1.91834,-0.2015 3.31064,-3.56462 6.23282,-14.52053 18.60617,-15.82024 8.7285,-0.91685 14.97166,4.97204 3.01992,2.89966 5.27657,7.76524 2.24513,4.75587 2.72917,9.36394 0.54166,5.15664 -0.9923,10.86411 -1.54548,5.59774 -4.5338,9.46129 -5.43571,7.33748 -14.35604,8.27448 -4.8918,0.51384 -8.45636,-1.10841 -3.46864,-1.63233 -9.47386,-7.10249 -2.25629,-2.09245 -3.98281,-1.9111 -2.68569,0.28211 -3.18016,3.88369 -0.41007,3.4818 0.75392,14.56313 1.74023,16.56711 3.42917,22.49066 1.01717,3.22096 2.30647,4.41665 1.3737,1.0759 5.44462,1.9794 8.94374,2.05557 9.71589,9.40654 0.47251,4.49835 -1.95183,8.19174 -2.43586,3.58366 -6.92466,5.16443 -8.97758,3.16154 -26.81824,5.03554 -16.9774,1.78333 -26.15907,-0.69094 -8.18792,-2.24588 -8.98313,-9.81628 -0.59928,-5.70523 4.68325,-10.80811 2.56264,-2.37679 3.44486,-4.13336 0.8707,-1.86628 0.9432,-4.86892 0.48593,-10.14536 -2.34914,-37.13551 -0.51861,-4.93721 -1.69674,-6.92106 -1.18968,-2.09358 -4.2055,-3.1079 -7.13284,-2.35671 -7.74364,-8.17166 -0.55319,-5.26637 3.75493,-9.49041 4.29659,-4.33375 14.93528,-9.22274 14.24115,-6.59854 24.58872,-7.79638 z" />
    <path
       style="font-style:normal;font-variant:normal;font-weight:normal;font-stretch:normal;font-size:medium;line-height:125%;font-family:'Cooper Black';-inkscape-font-specification:'Cooper Black, ';letter-spacing:0px;word-spacing:0px;fill:#000000;fill-opacity:1;stroke:none;stroke-width:1px;stroke-linecap:butt;stroke-linejoin:miter;stroke-opacity:1"
       inkscape:connector-curvature="0"
       id="path3359"
       d="m 781.54779,466.33923 -45.08122,4.73538 q -2.97344,0.31233 -2.66228,3.27468 0.74911,7.13154 8.13177,12.7898 7.46705,5.53846 15.23636,4.72236 4.60404,-0.48361 9.95982,-3.04286 5.44016,-2.67905 8.77386,-6.02423 2.98461,-2.97576 4.90295,-3.17726 2.49385,-0.26196 5.26059,2.99708 2.76672,3.25904 3.15856,6.98938 0.82977,7.89955 -7.03064,16.1573 -13.87945,14.65818 -33.83029,16.75384 -20.14268,2.1158 -35.16897,-9.83887 -7.30979,-5.88777 -12.60568,-14.76025 -6.96142,-11.80346 -8.402,-25.51797 -1.93615,-18.43229 6.30313,-34.16191 7.10388,-13.61368 19.49175,-21.23773 9.28802,-5.74547 20.70221,-6.94442 18.22432,-1.9143 32.22601,8.595 7.04881,5.24962 11.83426,12.95553 5.47619,8.74261 6.39816,17.51989 0.74911,7.13154 -1.35663,12.01165 -2.11726,4.77038 -6.24172,5.20361 z m -44.74248,-16.04347 9.68767,-1.0176 q 6.13872,-0.64482 5.45876,-7.11805 -0.62233,-5.92468 -3.98761,-9.34268 -3.36529,-3.41802 -8.16116,-2.91425 -5.37137,0.56421 -7.93365,5.71412 -2.40502,4.80062 -1.92098,9.4087 0.34574,3.29148 1.82688,4.46701 1.57707,1.16546 5.03009,0.80275 z" />
    <path
       style="font-style:normal;font-variant:normal;font-weight:normal;font-stretch:normal;font-size:medium;line-height:125%;font-family:'Cooper Black';-inkscape-font-specification:'Cooper Black, ';letter-spacing:0px;word-spacing:0px;fill:#000000;fill-opacity:1;stroke:none;stroke-width:1px;stroke-linecap:butt;stroke-linejoin:miter;stroke-opacity:1"
       inkscape:connector-curvature="0"
       id="path3361"
       d="m 824.99586,386.62335 q 4.79589,-0.50377 15.8881,0.77147 2.2522,0.20713 3.69096,0.056 1.6306,-0.17128 6.12311,-2.63985 2.10238,-1.21918 3.63707,-1.38038 4.4122,-0.46347 9.60028,5.53624 4.18652,4.77379 7.13392,10.67608 2.94741,5.9023 3.41992,10.40065 0.46099,4.38864 -1.91353,7.63309 -2.38606,3.13472 -6.41459,3.55788 -3.35711,0.35264 -6.23872,-1.23043 -2.78569,-1.59314 -9.30509,-7.34208 -6.85326,-6.15757 -10.88179,-5.73441 -2.68569,0.28211 -4.45793,2.79773 -1.68786,2.39582 -1.36517,5.46787 0.56471,5.37608 10.07651,9.1468 17.08594,6.6357 26.75573,15.60337 8.16561,7.57269 9.43333,19.64145 1.60193,15.25053 -9.02821,26.6833 -9.13785,9.94491 -23.7173,11.47636 -3.74079,0.39293 -13.77011,0.004 -9.43077,-0.22957 -10.58177,-0.10867 -1.24694,0.13098 -2.84297,0.63141 -2.7355,0.73105 -3.98242,0.86203 -4.50812,0.47354 -7.3745,-1.88761 -4.35902,-3.64641 -8.62658,-11.96134 -4.27909,-8.42465 -4.936,-14.67846 -1.06027,-10.09389 5.84578,-10.81931 2.6857,-0.28211 5.11076,1.57077 2.50947,1.73308 10.62526,9.75472 4.4397,4.41442 7.2254,6.00757 2.77416,1.48342 5.7476,1.17109 3.16528,-0.33249 4.88771,-2.39916 1.71091,-2.1764 1.3767,-5.35816 -0.51861,-4.93724 -8.33067,-8.22093 -16.35317,-7.04544 -24.22731,-15.53617 -7.77822,-8.5008 -9.04593,-20.56957 -1.37144,-13.05621 4.63942,-23.22728 8.55788,-14.54289 25.82303,-16.35643 z" />
    <ellipse
       style="fill:#f9f9f9;fill-opacity:1;stroke:none;stroke-opacity:1"
       id="path3373"
       cx="288.57144"
       cy="695.21936"
       rx="59.999996"
       ry="60.000004" />
    <circle
       style="fill:#ffcc00;fill-opacity:1;stroke:none;stroke-opacity:1"
       id="path3375"
       cx="380"
       cy="898.07648"
       r="111.42857" />
    <ellipse
       style="fill:#0044aa;fill-opacity:1;stroke:none;stroke-opacity:1"
       id="path3377"
       cx="510.00003"
       cy="706.64789"
       rx="101.42857"
       ry="111.42857" />
    <ellipse
       style="fill:#00aa44;fill-opacity:1;stroke:none;stroke-opacity:1"
       id="path3379"
       cx="610.00006"
       cy="929.505"
       rx="98.571434"
       ry="100" />
    <ellipse
       style="fill:#c83737;fill-opacity:1;stroke:none;stroke-opacity:1"
       id="path3381"
       cx="731.42859"
       cy="729.505"
       rx="117.14286"
       ry="120" />
    <ellipse
       style="fill:#ffaaaa;fill-opacity:1;stroke:none;stroke-opacity:1"
       id="path3393"
       cx="188.57143"
       cy="933.79077"
       rx="62.857143"
       ry="64.285713" />
    <ellipse
       style="fill:#782144;fill-opacity:1;stroke:none;stroke-opacity:1"
       id="path3395"
       cx="924.28571"
       cy="628.07648"
       rx="58.57143"
       ry="61.42857" />
    <ellipse
       style="fill:#1c1c24;fill-opacity:1;stroke:none;stroke-opacity:1"
       id="path3395-7"
       cx="850"
       cy="932.36218"
       rx="74.285713"
       ry="78.571426" />
    <g
       style="fill:#ccaaff"
       id="g4313"
       transform="translate(722.85715,202.85715)">
      <path
         d="m -302.96079,-58.276358 0,35.4126 q 0,23.49807032 0.57866,27.3592603 0.67512,3.86119 4.82226,5.9572597 3.56848,1.76512 4.72583,3.30959 1.25378,1.54448 1.25378,4.41279 0,3.64055 -2.31469,6.61918 -2.21823,2.97863 -5.9796,4.19214 -6.94405,2.42704 -23.43619,2.42704 -18.61392,0 -26.13665,-3.19927 -3.47202,-1.43416 -5.69027,-4.41279 -2.21823,-3.08895 -2.21823,-6.39854 0,-2.64767 1.15734,-4.08182 1.25378,-1.43417 5.30449,-3.4199197 3.76136,-1.87543 4.62937,-10.25971998 1.54312,-14.34155032 1.54312,-40.81826032 0,-26.918 -1.35023,-34.640375 -1.35023,-7.72238 -6.75117,-11.47325 -4.0507,-2.64767 -5.59382,-4.96438 -1.44668,-2.42703 -1.44668,-5.84694 0,-5.405657 4.53293,-9.377167 4.53292,-4.08183 14.46678,-7.50174 6.65472,-2.31672 17.26369,-4.4128 10.60897,-2.09607 15.43123,-2.09607 7.61917,0 7.61917,10.81134 0,3.53023 -0.96445,16.216987 -1.25378,19.74721 -1.44667,36.184855 z"
         id="path3343-9"
         inkscape:connector-curvature="0"
         style="font-style:normal;font-variant:normal;font-weight:normal;font-stretch:normal;font-size:medium;line-height:125%;font-family:'Cooper Black';-inkscape-font-specification:'Cooper Black, ';letter-spacing:0px;word-spacing:0px;fill:#ccaaff;fill-opacity:1;stroke:none;stroke-width:1px;stroke-linecap:butt;stroke-linejoin:miter;stroke-opacity:1" />
      <path
         d="m -226.19041,-56.210138 q 17.64947,0 30.95891,10.48035 9.54808,7.50175 15.33479,19.52659 5.9796,12.57643 5.9796,26.25607032 0,23.93935968 -19.19259,40.70794968 -18.32459,15.99635 -41.95367,15.99635 -23.05041,0 -37.32429,-15.00347 -13.88811,-14.5622 -13.88811,-37.9499597 0,-26.0354303 16.97435,-42.5833803 17.74592,-17.4305 43.11101,-17.4305 z m -7.71561,25.48382 q -4.2436,0 -6.84761,3.64056 -2.50758,3.53023 -2.50758,9.48748 0,6.61919 2.12179,18.09243032 2.21825,11.36290968 5.20805,20.18848968 2.9898,9.04621 9.74096,9.04621 8.58363,0 8.58363,-12.46611 0,-9.2668497 -2.21825,-21.0710597 -2.12179,-11.8042103 -5.20804,-19.1956203 -3.18269,-7.50174 -8.87295,-7.72238 z"
         id="path3345-2"
         inkscape:connector-curvature="0"
         style="font-style:normal;font-variant:normal;font-weight:normal;font-stretch:normal;font-size:medium;line-height:125%;font-family:'Cooper Black';-inkscape-font-specification:'Cooper Black, ';letter-spacing:0px;word-spacing:0px;fill:#ccaaff;fill-opacity:1;stroke:none;stroke-width:1px;stroke-linecap:butt;stroke-linejoin:miter;stroke-opacity:1" />
      <path
         d="m -128.4914,-66.385538 q 4.82225,0 15.72056,2.42702 2.21824,0.44129 3.66492,0.44129 1.63957,0 6.36538,-1.98576 2.21825,-0.99287 3.761373,-0.99287 4.43648,0 8.9694,6.50885 3.66492,5.18502 5.97961,11.36293 2.31468,6.17789 2.31468,10.70099 0,4.41279 -2.70047,7.39143 -2.70046,2.86831 -6.75116,2.86831 -3.37558,0 -6.07605,-1.87543 -2.60402,-1.87545 -8.487183,-8.27398 -6.17249,-6.83981 -10.22319,-6.83981 -2.70046,0 -4.72582,2.31671 -1.9289,2.20639 -1.9289,5.29534 0,5.40565 9.06585,10.14941 16.299243,8.38428 24.979313,18.3130503 7.32984,8.38429002 7.32984,20.5194597 0,15.33443 -11.76632,25.59415 -10.126753,8.9359 -24.786423,8.9359 -3.76137,0 -13.69521,-1.43416 -9.3552,-1.21352 -10.51254,-1.21352 -1.25378,0 -2.89335,0.33097 -2.79692,0.44128 -4.0507,0.44128 -4.53293,0 -7.13695,-2.64768 -3.95425,-4.08183 -7.32983,-12.79708 -3.37559,-8.82557 -3.37559,-15.11379 0,-10.1494097 6.94406,-10.1494097 2.70046,0 4.91871,2.09607 2.31468,1.98576 9.54807,10.8113297 3.95426,4.85407 6.55828,6.7295 2.60401,1.76511 5.59382,1.76511 3.18269,0 5.11159,-1.87543 1.9289,-1.98575 1.9289,-5.18502 0,-4.96439 -7.42627,-9.0462197 -15.52769,-8.71524998 -22.47174,-17.9821 -6.8476,-9.2668503 -6.8476,-21.4020003 0,-13.12804 7.04049,-22.61553 10.0303,-13.56931 27.39045,-13.56931 z"
         id="path3347-6"
         inkscape:connector-curvature="0"
         style="font-style:normal;font-variant:normal;font-weight:normal;font-stretch:normal;font-size:medium;line-height:125%;font-family:'Cooper Black';-inkscape-font-specification:'Cooper Black, ';letter-spacing:0px;word-spacing:0px;fill:#ccaaff;fill-opacity:1;stroke:none;stroke-width:1px;stroke-linecap:butt;stroke-linejoin:miter;stroke-opacity:1" />
      <path
         d="m -497.92771,138.97072 q 17.07331,-1.7934 31.14379,6.60108 13.35296,8.02615 14.80507,21.85038 1.00265,9.54529 -4.13007,16.07447 -4.78361,6.15973 -12.36111,6.95568 -7.96115,0.83625 -12.68116,-5.32355 -1.4659,-1.95364 -4.76276,-10.25959 -3.55785,-8.94411 -10.84757,-8.17839 -5.27547,0.55414 -8.36715,6.20336 -2.99577,5.63915 -2.18905,13.31927 1.38297,13.16593 10.70367,22.50305 7.57858,7.52342 17.74583,6.45545 4.79588,-0.50377 7.96488,-1.72405 3.15748,-1.33 8.1333,-4.73676 1.26217,-0.90907 2.89277,-1.08035 3.26119,-0.34256 6.12384,2.9064 2.86264,3.24896 3.3582,7.96675 0.51861,4.93722 -2.4541,10.7958 -2.98424,5.74887 -8.31287,10.41288 -11.54731,10.08708 -28.5247,11.8704 -19.75901,2.07551 -35.05002,-9.6295 -19.5924,-14.80284 -22.3007,-40.58611 -2.60458,-24.79583 12.2835,-42.77682 14.18988,-17.24209 36.82641,-19.61985 z"
         id="path3349-6"
         inkscape:connector-curvature="0"
         style="font-style:normal;font-variant:normal;font-weight:normal;font-stretch:normal;font-size:medium;line-height:125%;font-family:'Cooper Black';-inkscape-font-specification:'Cooper Black, ';letter-spacing:0px;word-spacing:0px;fill:#ccaaff;fill-opacity:1;stroke:none;stroke-width:1px;stroke-linecap:butt;stroke-linejoin:miter;stroke-opacity:1" />
      <path
         d="m -385.17124,170.10867 q 17.5529,-1.84378 31.88436,7.18885 10.27951,6.46324 17.29075,17.81777 7.2607,11.88296 8.68976,25.48775 2.50086,23.80838 -14.83498,42.4902 -16.55324,17.82312 -40.05303,20.29156 -22.92428,2.40799 -38.68743,-11.02224 -15.33338,-13.03169 -17.77661,-36.29148 -2.71982,-25.89299 12.43296,-44.12364 15.82791,-19.18898 41.05422,-21.83877 z m -5.01121,26.15041 q -4.22036,0.44331 -6.42983,4.33598 -2.12506,3.77287 -1.50272,9.69753 0.69148,6.58297 4.00023,17.77178 3.39314,11.06901 7.28856,19.53396 3.91847,8.68438 10.6327,7.97911 8.53664,-0.89669 7.23436,-13.29459 -0.96808,-9.21615 -4.40731,-20.72404 -3.34333,-11.51796 -7.18484,-18.54653 -3.94896,-7.12821 -9.63115,-6.7532 z"
         id="path3351-6"
         inkscape:connector-curvature="0"
         style="font-style:normal;font-variant:normal;font-weight:normal;font-stretch:normal;font-size:medium;line-height:125%;font-family:'Cooper Black';-inkscape-font-specification:'Cooper Black, ';letter-spacing:0px;word-spacing:0px;fill:#ccaaff;fill-opacity:1;stroke:none;stroke-width:1px;stroke-linecap:butt;stroke-linejoin:miter;stroke-opacity:1" />
      <path
         d="m -261.50377,193.80721 1.32733,35.38772 q 0.88076,23.48157 1.60374,27.31835 0.81936,3.83318 5.04217,5.77233 3.63213,1.63013 4.84654,3.13013 1.3108,1.49639 1.41831,4.36269 0.13646,3.63799 -2.06495,6.70129 -2.10504,3.05968 -5.81829,4.41332 -6.84819,2.68562 -23.32872,3.30377 -18.60085,0.69769 -26.23823,-2.21737 -3.52332,-1.30301 -5.85166,-4.1964 -2.33245,-3.00363 -2.45651,-6.3109 -0.0992,-2.64581 1.00354,-4.12233 1.19915,-1.48015 5.17257,-3.61634 3.68842,-2.0151 4.24157,-10.42604 1.00451,-14.3893 0.0121,-40.84742 -1.00894,-26.89908 -2.64768,-34.56542 -1.63874,-7.66634 -7.17646,-11.21213 -4.1471,-2.49398 -5.77596,-4.75123 -1.53664,-2.3711 -1.66483,-5.7886 -0.20262,-5.40187 4.17826,-9.54049 4.37674,-4.24887 14.17544,-8.03871 6.56321,-2.56451 17.08616,-5.05677 10.52296,-2.49225 15.34183,-2.67299 7.61381,-0.28559 8.01904,10.51816 0.13232,3.52773 -0.35592,16.24173 -0.51275,19.78033 -0.0894,36.21365 z"
         id="path3353-8"
         inkscape:connector-curvature="0"
         style="font-style:normal;font-variant:normal;font-weight:normal;font-stretch:normal;font-size:medium;line-height:125%;font-family:'Cooper Black';-inkscape-font-specification:'Cooper Black, ';letter-spacing:0px;word-spacing:0px;fill:#ccaaff;fill-opacity:1;stroke:none;stroke-width:1px;stroke-linecap:butt;stroke-linejoin:miter;stroke-opacity:1" />
      <path
         d="m -189.42833,178.27626 q 17.55291,-1.84378 31.88437,7.18885 10.27951,6.46324 17.29075,17.81778 7.2607,11.88295 8.68976,25.48774 2.50086,23.80837 -14.83499,42.49019 -16.55323,17.82313 -40.05303,20.29157 -22.92427,2.40799 -38.68742,-11.02225 -15.33339,-13.03168 -17.77662,-36.29147 -2.71982,-25.89298 12.43296,-44.12364 15.82792,-19.18898 41.05422,-21.83877 z m -5.0112,26.15042 q -4.22036,0.44331 -6.42983,4.33597 -2.12506,3.77287 -1.50273,9.69753 0.69149,6.58297 4.00024,17.77178 3.39314,11.06902 7.28856,19.53397 3.91847,8.68438 10.63269,7.97911 8.53665,-0.89669 7.23436,-13.29461 -0.96807,-9.21614 -4.4073,-20.72403 -3.34333,-11.51796 -7.18485,-18.54653 -3.94896,-7.1282 -9.63114,-6.75319 z"
         id="path3355-0"
         inkscape:connector-curvature="0"
         style="font-style:normal;font-variant:normal;font-weight:normal;font-stretch:normal;font-size:medium;line-height:125%;font-family:'Cooper Black';-inkscape-font-specification:'Cooper Black, ';letter-spacing:0px;word-spacing:0px;fill:#ccaaff;fill-opacity:1;stroke:none;stroke-width:1px;stroke-linecap:butt;stroke-linejoin:miter;stroke-opacity:1" />
      <path
         d="m -82.318287,173.54751 q 5.08362,-0.53399 6.31159,1.00092 1.32388,1.52484 3.12063,10.32117 0.98668,4.77712 3.48054,4.51516 1.91834,-0.2015 3.31064,-3.56462 6.23282,-14.52053 18.60617,-15.82024 8.7285,-0.91685 14.97166,4.97204 3.01992,2.89966 5.27657,7.76524 2.24513,4.75587 2.72917,9.36394 0.54166,5.15664 -0.9923,10.86411 -1.54548,5.59774 -4.5338,9.46129 -5.43571,7.33748 -14.35604,8.27448 -4.8918,0.51384 -8.45636,-1.10841 -3.46864,-1.63233 -9.47386,-7.10249 -2.25629,-2.09245 -3.98281,-1.9111 -2.68569,0.28211 -3.18016,3.88369 -0.41007,3.4818 0.75392,14.56313 1.74023,16.56711 3.42917,22.49066 1.01717,3.22096 2.30647,4.41665 1.3737,1.0759 5.44462,1.9794 8.94374,2.05557 9.71589,9.40654 0.47251,4.49835 -1.95183,8.19174 -2.43586,3.58366 -6.92466,5.16443 -8.97758,3.16154 -26.81824,5.03554 -16.977403,1.78333 -26.159073,-0.69094 -8.18792,-2.24588 -8.98313,-9.81628 -0.59928,-5.70523 4.68325,-10.80811 2.56264,-2.37679 3.44486,-4.13336 0.8707,-1.86628 0.9432,-4.86892 0.48593,-10.14536 -2.34914,-37.13551 -0.51861,-4.93721 -1.69674,-6.92106 -1.18968,-2.09358 -4.2055,-3.1079 -7.13284,-2.35671 -7.74364,-8.17166 -0.55319,-5.26637 3.75493,-9.49041 4.29659,-4.33375 14.93528,-9.22274 14.241153,-6.59854 24.588723,-7.79638 z"
         id="path3357-8"
         inkscape:connector-curvature="0"
         style="font-style:normal;font-variant:normal;font-weight:normal;font-stretch:normal;font-size:medium;line-height:125%;font-family:'Cooper Black';-inkscape-font-specification:'Cooper Black, ';letter-spacing:0px;word-spacing:0px;fill:#ccaaff;fill-opacity:1;stroke:none;stroke-width:1px;stroke-linecap:butt;stroke-linejoin:miter;stroke-opacity:1" />
      <path
         d="m 65.728313,249.72023 -45.08122,4.73538 q -2.97344,0.31233 -2.66228,3.27468 0.74911,7.13154 8.13177,12.7898 7.46705,5.53846 15.23636,4.72236 4.60404,-0.48361 9.95982,-3.04286 5.44016,-2.67905 8.77386,-6.02423 2.98461,-2.97576 4.90295,-3.17726 2.49385,-0.26196 5.26059,2.99708 2.76672,3.25904 3.15856,6.98938 0.82977,7.89955 -7.03064,16.1573 -13.87945,14.65818 -33.83029,16.75384 -20.14268,2.1158 -35.16897,-9.83887 -7.30979,-5.88777 -12.60568,-14.76025 -6.96142,-11.80346 -8.402,-25.51797 -1.93615,-18.43229 6.30313,-34.16191 7.10388,-13.61368 19.49175,-21.23773 9.28802,-5.74547 20.70221,-6.94442 18.22432,-1.9143 32.22601,8.595 7.04881,5.24962 11.83426,12.95553 5.47619,8.74261 6.39816,17.51989 0.74911,7.13154 -1.35663,12.01165 -2.11726,4.77038 -6.24172,5.20361 z m -44.74248,-16.04347 9.68767,-1.0176 q 6.13872,-0.64482 5.45876,-7.11805 -0.62233,-5.92468 -3.98761,-9.34268 -3.36529,-3.41802 -8.16116,-2.91425 -5.37137,0.56421 -7.93365,5.71412 -2.40502,4.80062 -1.92098,9.4087 0.34574,3.29148 1.82688,4.46701 1.57707,1.16546 5.03009,0.80275 z"
         id="path3359-2"
         inkscape:connector-curvature="0"
         style="font-style:normal;font-variant:normal;font-weight:normal;font-stretch:normal;font-size:medium;line-height:125%;font-family:'Cooper Black';-inkscape-font-specification:'Cooper Black, ';letter-spacing:0px;word-spacing:0px;fill:#ccaaff;fill-opacity:1;stroke:none;stroke-width:1px;stroke-linecap:butt;stroke-linejoin:miter;stroke-opacity:1" />
      <path
         d="m 109.17638,170.00435 q 4.79589,-0.50377 15.8881,0.77147 2.2522,0.20713 3.69096,0.056 1.6306,-0.17128 6.12311,-2.63985 2.10238,-1.21918 3.63707,-1.38038 4.4122,-0.46347 9.60028,5.53624 4.18652,4.77379 7.13392,10.67608 2.94741,5.9023 3.41992,10.40065 0.46099,4.38864 -1.91353,7.63309 -2.38606,3.13472 -6.41459,3.55788 -3.35711,0.35264 -6.23872,-1.23043 -2.78569,-1.59314 -9.30509,-7.34208 -6.85326,-6.15757 -10.88179,-5.73441 -2.68569,0.28211 -4.45793,2.79773 -1.68786,2.39582 -1.36517,5.46787 0.56471,5.37608 10.07651,9.1468 17.08594,6.6357 26.75573,15.60337 8.16561,7.57269 9.43333,19.64145 1.60193,15.25053 -9.02821,26.6833 -9.13785,9.94491 -23.7173,11.47636 -3.74079,0.39293 -13.77011,0.004 -9.43077,-0.22957 -10.58177,-0.10867 -1.24694,0.13098 -2.84297,0.63141 -2.7355,0.73105 -3.98242,0.86203 -4.508117,0.47354 -7.374497,-1.88761 -4.35902,-3.64641 -8.62658,-11.96134 -4.27909,-8.42465 -4.936,-14.67846 -1.06027,-10.09389 5.84578,-10.81931 2.6857,-0.28211 5.11076,1.57077 2.50947,1.73308 10.625257,9.75472 4.4397,4.41442 7.2254,6.00757 2.77416,1.48342 5.7476,1.17109 3.16528,-0.33249 4.88771,-2.39916 1.71091,-2.1764 1.3767,-5.35816 -0.51861,-4.93724 -8.33067,-8.22093 -16.353167,-7.04544 -24.227307,-15.53617 -7.77822,-8.5008 -9.04593,-20.56957 -1.37144,-13.05621 4.63942,-23.22728 8.55788,-14.54289 25.823027,-16.35643 z"
         id="path3361-6"
         inkscape:connector-curvature="0"
         style="font-style:normal;font-variant:normal;font-weight:normal;font-stretch:normal;font-size:medium;line-height:125%;font-family:'Cooper Black';-inkscape-font-specification:'Cooper Black, ';letter-spacing:0px;word-spacing:0px;fill:#ccaaff;fill-opacity:1;stroke:none;stroke-width:1px;stroke-linecap:butt;stroke-linejoin:miter;stroke-opacity:1" />
    </g>
    <rect
       style="opacity:0.36000001;fill:url(#linearGradient4221);fill-opacity:1;stroke:none;stroke-opacity:1"
       id="rect3413"
       width="1017.1429"
       height="1005.7143"
       x="-2.8571422"
       y="-2.2481892e-013"
       transform="translate(0,52.362161)" />
  </g>
</svg>
