<?xml version="1.0" encoding="UTF-8" standalone="no"?>
<!-- Created with Inkscape (http://www.inkscape.org/) -->

<svg
   xmlns:dc="http://purl.org/dc/elements/1.1/"
   xmlns:cc="http://creativecommons.org/ns#"
   xmlns:rdf="http://www.w3.org/1999/02/22-rdf-syntax-ns#"
   xmlns:svg="http://www.w3.org/2000/svg"
   xmlns="http://www.w3.org/2000/svg"
   xmlns:xlink="http://www.w3.org/1999/xlink"
   xmlns:sodipodi="http://sodipodi.sourceforge.net/DTD/sodipodi-0.dtd"
   xmlns:inkscape="http://www.inkscape.org/namespaces/inkscape"
   width="3543.3071"
   height="3543.3071"
   viewBox="0 0 3543.3071 3543.3071"
   id="svg4932"
   version="1.1"
   inkscape:version="0.91 r13725"
   sodipodi:docname="partes del cuerpo.svg"
   inkscape:export-filename="C:\Users\Usuario\Pictures\imgs embera\partes del cuerpo2.png"
   inkscape:export-xdpi="25.4"
   inkscape:export-ydpi="25.4">
  <defs
     id="defs4934">
    <linearGradient
       inkscape:collect="always"
       id="linearGradient5714">
      <stop
         style="stop-color:#280b0b;stop-opacity:1;"
         offset="0"
         id="stop5716" />
      <stop
         style="stop-color:#f0a9a9;stop-opacity:0"
         offset="1"
         id="stop5718" />
    </linearGradient>
    <linearGradient
       inkscape:collect="always"
       xlink:href="#linearGradient5714"
       id="linearGradient5720"
       x1="-185.86815"
       y1="-1266.948"
       x2="1979.8993"
       y2="-547.71924"
       gradientUnits="userSpaceOnUse" />
  </defs>
  <sodipodi:namedview
     id="base"
     pagecolor="#ffffff"
     bordercolor="#666666"
     borderopacity="1.0"
     inkscape:pageopacity="0.0"
     inkscape:pageshadow="2"
     inkscape:zoom="0.12374369"
     inkscape:cx="1427.1952"
     inkscape:cy="1747.835"
     inkscape:document-units="px"
     inkscape:current-layer="layer1"
     showgrid="false"
     units="px"
     inkscape:window-width="1360"
     inkscape:window-height="706"
     inkscape:window-x="-8"
     inkscape:window-y="-8"
     inkscape:window-maximized="1" />
  <metadata
     id="metadata4937">
    <rdf:RDF>
      <cc:Work
         rdf:about="">
        <dc:format>image/svg+xml</dc:format>
        <dc:type
           rdf:resource="http://purl.org/dc/dcmitype/StillImage" />
        <dc:title></dc:title>
      </cc:Work>
    </rdf:RDF>
  </metadata>
  <g
     inkscape:groupmode="layer"
     id="layer3"
     inkscape:label="Capa 2">
    <rect
       transform="translate(0,2490.9449)"
       style="opacity:0.35199998;fill:url(#linearGradient5720);fill-opacity:1;stroke:none;stroke-opacity:1"
       id="rect5712"
       width="3830.4985"
       height="3652.7117"
       x="-64.649765"
       y="-2519.5371" />
  </g>
  <g
     inkscape:label="Capa 1"
     inkscape:groupmode="layer"
     id="layer1"
     transform="translate(0,2490.9449)">
    <path
       style="fill:#e9c6af;fill-opacity:1;fill-rule:evenodd;stroke:none;stroke-width:1px;stroke-linecap:butt;stroke-linejoin:miter;stroke-opacity:1"
       d="m 1919.4129,-645.19028 c -111.0956,393.06843 94.7581,618.131771 -114.3631,776.6271 -209.1211,158.4953 -581.6182,329.67029 -607.7584,329.67029 -26.14,0 -58.5642,-130.86936 -169.9108,-76.0778 -141.09261,69.42895 -11.2313,269.71351 147.0383,212.38381 -184.80804,18.90462 -53.768,203.86933 52.2802,117.28649 0,0 -102.479,48.82587 3.2675,95.0972 0,0 91.5574,1.5355 133.9683,-60.22818 0,0 -69.0243,81.29379 -9.8026,110.9467 101.2931,50.71846 145.6191,-118.61721 130.7008,-38.03885 -22.6495,122.33661 105.6985,33.9419 133.9682,-9.50976 205.78,-316.29243 873.6034,-80.28801 973.7204,-244.08279 69.6236,-113.90666 -144.3727,-366.92797 -133.9683,-456.46651 3.1167,-26.822289 105.7946,-135.903709 -52.2803,-202.874049 -92.9721,-39.388771 35.9427,-396.238331 94.758,-459.636461 58.8154,-63.39813 -581.6182,-95.09719 -581.6182,-95.09719 z"
       id="path4944"
       inkscape:connector-curvature="0"
       sodipodi:nodetypes="cssscssssssssssc" />
    <path
       style="fill:none;fill-rule:evenodd;stroke:#000000;stroke-width:0.79649907px;stroke-linecap:butt;stroke-linejoin:miter;stroke-opacity:1"
       d="m 1050.2532,397.70898 c -26.1402,44.37865 -5.8685,115.45925 94.758,88.75738 57.9947,-15.38925 -44.4586,-136.36835 -94.758,-88.75738 z"
       id="path4946"
       inkscape:connector-curvature="0"
       sodipodi:nodetypes="csc" />
    <path
       style="fill:#ffe0cb;fill-opacity:1;fill-rule:evenodd;stroke:none;stroke-width:1px;stroke-linecap:butt;stroke-linejoin:miter;stroke-opacity:1"
       d="m 1926.6299,-637.9217 c -33.5111,120.69777 -38.7037,247.46131 -26.4877,371.48526 6.1942,71.60365 16.9643,143.36127 12.5666,215.383201 -3.7194,48.8817895 -18.7011,98.26147 -50.5513,137.04288 -32.2333,40.392319 -77.2584,68.224629 -119.601,97.516699 -115.4753,77.60402 -238.7449,143.52718 -363.6041,205.67484 -55.008,26.91306 -110.5576,53.06676 -168.1449,74.42525 -8.8176,3.23008 -19.8816,3.91596 -27.1937,-2.84677 -10.9047,-8.93822 -17.3816,-21.6133 -26.2512,-32.22986 -15.4511,-20.66934 -34.0027,-42.19584 -60.4449,-49.32427 -26.7729,-6.74029 -55.0871,2.92027 -77.697,17.20103 -23.59247,14.97009 -41.65756,40.2338 -41.96077,68.08398 -1.49803,40.35952 22.82427,78.31122 55.71287,101.78735 27.2888,19.50408 61.8583,30.70523 95.7021,26.82798 17.0215,-4.25639 34.5551,-10.50846 52.3871,-8.20195 6.7281,2.38116 6.9327,13.17703 0.06,15.48491 -15.8111,8.55591 -34.5046,8.86987 -51.5969,13.20033 -12.7946,3.97078 -23.8481,12.3994 -31.058,23.17681 -7.6469,10.89541 -8.2797,25.00003 -4.0094,37.23732 12.1861,37.11509 58.1892,59.57995 96.1054,46.31003 9.1688,-2.6464 16.1879,-9.04781 24.0681,-13.90813 8.7815,-5.1477 19.2927,-8.16195 29.567,-6.36804 -4.6307,16.34066 -20.7379,25.50407 -34.7524,33.60584 -9.0615,6.41417 -18.1604,16.59446 -16.9725,28.30777 3.1714,14.09149 17.0492,22.42315 29.1704,28.94432 6.4696,4.46839 14.4607,6.24493 22.2592,4.79122 27.705,-2.7073 55.4966,-9.69474 79.0979,-24.43212 12.6924,-7.76908 23.8678,-17.96814 32.432,-29.99644 3.3681,-4.10594 9.7585,-8.51082 14.8909,-4.45733 4.5812,3.15063 5.3695,9.94386 1.6489,13.99711 -6.2349,10.10056 -14.6614,18.7086 -19.5497,29.5647 -8.3403,15.35898 -15.6263,33.628 -10.0978,51.03469 6.5155,15.01455 24.0303,21.45602 39.3705,24.3766 18.9551,3.1029 38.7779,-2.96993 53.3722,-15.12484 18.552,-14.00699 30.4228,-34.05975 45.0928,-51.44225 6.0391,-4.79161 17.2448,-1.1013 17.1622,6.98954 1.3924,11.80055 -3.6457,23.12456 -4.1537,34.84221 -1.5159,12.17585 -2.5207,26.34162 5.91,36.47077 8.988,6.79301 21.3301,2.67958 30.8494,-0.75996 25.5624,-9.88539 47.526,-27.253 66.8874,-45.86483 17.1806,-18.21383 28.6747,-40.68991 46.3137,-58.55645 47.8819,-51.85961 112.9365,-86.48215 181.21,-106.14304 95.4843,-28.50964 196.13,-33.86479 295.3885,-35.82449 108.9024,-1.59808 218.1188,5.09776 326.7581,-3.94832 37.7835,-3.85308 76.288,-10.28442 109.6012,-29.00884 20.3175,-12.20868 35.9023,-32.6266 38.9983,-55.9329 6.9108,-37.84417 -4.9165,-75.97628 -17.2521,-111.83012 -29.1568,-80.96373 -75.8981,-154.39153 -109.7586,-233.40291 -8.3621,-20.6231 -16.3958,-41.79171 -18.9973,-63.93006 -1.2982,-13.63978 2.6913,-27.247779 9.908,-38.899789 14.0995,-26.74345 28.7517,-55.4166 25.356,-86.2267805 -1.6061,-17.5186595 -10.3782,-33.5314595 -22.9151,-46.0413795 -17.6112,-18.41522 -41.6081,-29.4421 -64.6376,-40.16453 -19.1027,-11.485711 -27.2457,-33.714751 -30.3158,-54.311041 -4.2791,-29.80643 -1.4208,-60.10208 2.806,-89.75615 8.4185,-54.2333 23.9825,-107.1826 41.8533,-159.12458 17.3431,-48.83029 37.579,-96.93435 63.8749,-141.91748 6.0798,-9.85723 13.8496,-19.13503 19.7664,-28.76193 -4.8377,-6.52816 -13.6097,-8.48261 -20.6971,-11.90041 -29.5154,-10.90833 -61.0747,-15.99165 -92.0784,-21.75538 -76.3859,-12.78864 -153.7036,-20.09386 -230.8277,-27.29999 -74.5881,-6.49152 -149.3207,-11.31886 -224.0812,-15.71644 -0.1531,0.54908 -0.3064,1.09808 -0.4595,1.64716 z"
       id="path4944-1"
       inkscape:connector-curvature="0" />
    <path
       style="fill:#deaa87;fill-rule:evenodd;stroke:none;stroke-width:1px;stroke-linecap:butt;stroke-linejoin:miter;stroke-opacity:1"
       d="m 2267.9107,-52.417709 c -55.9087,89.46011 -65.5148,201.434249 -59.6445,223.222659 20.0907,74.56893 203.888,-28.92619 156.1968,-11.35881 -190.1152,70.03036 -96.5523,-211.863849 -96.5523,-211.863849 z"
       id="path5515"
       inkscape:connector-curvature="0"
       sodipodi:nodetypes="cssc" />
    <path
       style="fill:#ffe6d5;fill-opacity:1;fill-rule:evenodd;stroke:none;stroke-width:1px;stroke-linecap:butt;stroke-linejoin:miter;stroke-opacity:1"
       d="m 1103.2912,369.91321 c -34.9749,-2.75198 -23.2515,3.46172 -54.8902,43.74325 -47.8988,60.98352 80.5003,131.53325 95.3643,98.39199 19.0365,-42.44411 48.0603,-22.46323 40.8378,-50.83598 -13.5278,-53.14236 -81.3119,-91.29926 -81.3119,-91.29926 z"
       id="path5517"
       inkscape:connector-curvature="0"
       sodipodi:nodetypes="csssc" />
    <path
       style="fill:#ffe6d5;fill-opacity:1;fill-rule:evenodd;stroke:none;stroke-width:1px;stroke-linecap:butt;stroke-linejoin:miter;stroke-opacity:1"
       d="m 1110.8055,665.16744 c -0.4427,20.64485 3.2969,13.52657 31.9254,30.59973 43.3418,25.84766 85.993,-52.20774 62.894,-59.69621 -29.5829,-9.59051 -17.2042,-27.38556 -36.1667,-22.08064 -35.5171,9.93617 -58.6527,51.17712 -58.6527,51.17712 z"
       id="path5517-1"
       inkscape:connector-curvature="0"
       sodipodi:nodetypes="csssc" />
    <path
       style="fill:#ffe6d5;fill-opacity:1;fill-rule:evenodd;stroke:none;stroke-width:1px;stroke-linecap:butt;stroke-linejoin:miter;stroke-opacity:1"
       d="m 1205.4597,753.3823 c -0.3572,17.66924 2.659,11.57697 25.7495,26.18929 34.9575,22.12206 69.358,-44.68277 50.7275,-51.0919 -23.8602,-8.20816 -13.8762,-23.43834 -29.1705,-18.89802 -28.6465,8.50399 -47.3065,43.80063 -47.3065,43.80063 z"
       id="path5517-1-2"
       inkscape:connector-curvature="0"
       sodipodi:nodetypes="csssc" />
    <path
       style="fill:#ffe6d5;fill-opacity:1;fill-rule:evenodd;stroke:none;stroke-width:1px;stroke-linecap:butt;stroke-linejoin:miter;stroke-opacity:1"
       d="m 1339.4341,814.78663 c -0.4427,20.6449 3.2969,13.52663 31.9255,30.59978 43.3417,25.84763 85.9929,-52.20774 62.8939,-59.69622 -29.5828,-9.5905 -17.2042,-27.38559 -36.1668,-22.08064 -35.517,9.93616 -58.6526,51.17708 -58.6526,51.17708 z"
       id="path5517-1-6"
       inkscape:connector-curvature="0"
       sodipodi:nodetypes="csssc" />
    <path
       style="fill:#ffe6d5;fill-opacity:1;fill-rule:evenodd;stroke:none;stroke-width:1px;stroke-linecap:butt;stroke-linejoin:miter;stroke-opacity:1"
       d="m 1492.6884,848.90118 c 7.716,11.77545 7.2688,6.28057 31.5394,4.42128 36.744,-2.81475 32.8534,-63.72636 15.7035,-58.69414 -21.9637,6.44475 -21.2126,-8.50383 -30.8594,2.06124 -18.0686,19.78847 -16.3835,52.21162 -16.3835,52.21162 z"
       id="path5517-1-1"
       inkscape:connector-curvature="0"
       sodipodi:nodetypes="csssc"
       inkscape:transform-center-y="-6.3398129" />
    <path
       style="fill:#d35f5f;fill-opacity:1;fill-rule:evenodd;stroke:none;stroke-width:1px;stroke-linecap:butt;stroke-linejoin:miter;stroke-opacity:1"
       d="M 1213.4318,-7.9863195 1349.7504,133.2258 c 0,0 -101.6494,82.91407 -64.6935,89.65848 l 233.3588,42.58782 c 0,0 -34.6572,-47.07077 -39.2782,-226.387689 -0.4164,-16.1584 -83.1774,53.79505 -83.1774,53.79505 l -120.1452,-174.83403 z"
       id="path5561"
       inkscape:connector-curvature="0"
       sodipodi:nodetypes="ccscsccc" />
    <path
       style="fill:#e9afaf;fill-opacity:1;fill-rule:evenodd;stroke:none;stroke-width:1px;stroke-linecap:butt;stroke-linejoin:miter;stroke-opacity:1"
       d="m 1224.9843,-20.986839 136.3185,141.212129 c 0,0 -101.6494,82.91403 -64.6935,89.65848 l 233.3588,42.58785 c 0,0 -34.6571,-47.07079 -39.2782,-226.387749 -0.4164,-16.1583505 -83.1774,53.79507 -83.1774,53.79507 l -120.1451,-174.83403 z"
       id="path5561-0"
       inkscape:connector-curvature="0"
       sodipodi:nodetypes="ccscsccc" />
    <g
       id="g5726"
       transform="matrix(1.1719688,0,0,1.1674011,-302.2389,447.14938)">
      <path
         d="m 780.98412,-2049.2666 0,-139.5747 q 0,-27.0659 -2.74882,-34.2302 -2.74882,-7.43 -14.92216,-11.9409 -17.67098,-6.8991 -17.67098,-23.8816 0,-11.9408 7.46107,-18.3092 7.46109,-6.3685 21.59788,-6.3685 4.71226,0 23.36496,0.7961 l 11.78065,0 q 32.59315,-0.2654 38.09078,-0.5307 5.69399,-0.5306 40.05426,-4.7763 11.38791,-1.5921 20.81251,-1.5921 32.2004,0 57.33248,17.7785 43.78475,30.7808 43.78475,97.6492 0,54.1317 -30.62965,86.7699 -28.86267,30.5154 -69.89861,30.5154 -10.40625,0 -25.52475,-1.8575 -8.05008,-0.7961 -10.01357,-0.7961 -5.694,0 -5.694,8.7566 l 0,1.5921 1.37443,43.5176 q 0.39268,12.7368 3.33791,19.1052 3.14145,6.1032 12.56604,12.7369 12.76233,9.2874 12.76233,20.1667 0,16.7171 -18.84901,25.7391 -18.8491,9.0218 -53.40567,9.0218 -72.64737,0 -72.64737,-33.6995 0,-7.9605 3.14151,-12.2062 3.1415,-4.2456 14.72582,-12.2061 7.06839,-5.0416 8.24646,-14.0636 1.17806,-9.022 1.57075,-58.1119 z m 88.55123,-173.2743 0,90.2193 q 0,10.3488 3.33791,12.4716 5.69391,3.7149 14.33306,3.7149 12.95871,0 21.79424,-9.8179 12.76242,-14.0636 12.76242,-47.2326 0,-34.4957 -14.9222,-49.8859 -9.42451,-9.818 -22.77591,-9.818 -14.52952,0 -14.52952,10.3486 z"
         style="font-style:normal;font-variant:normal;font-weight:normal;font-stretch:normal;font-size:medium;line-height:125%;font-family:'Cooper Black';-inkscape-font-specification:'Cooper Black, ';letter-spacing:0px;word-spacing:0px;fill:#000000;fill-opacity:1;stroke:none;stroke-width:1px;stroke-linecap:butt;stroke-linejoin:miter;stroke-opacity:1"
         id="path5593"
         inkscape:connector-curvature="0" />
      <path
         d="m 1109.7998,-2131.6984 q 34.1639,0 57.9215,23.3509 12.5661,12.4715 17.4747,28.6579 5.1049,15.9211 5.1049,44.0483 l -0.3927,39.5373 q 0,41.1295 4.3196,53.3356 2.1598,5.8377 4.1232,7.4298 1.9635,1.5922 8.2465,2.9189 6.283,1.3268 6.283,11.1447 0,12.7369 -7.6574,26.5352 -7.4611,13.7982 -19.438,23.0855 -14.7259,11.6754 -30.8261,11.6754 -20.6162,0 -32.5932,-19.1052 -4.1232,-6.8991 -7.6574,-6.8991 -3.9269,0 -10.4062,6.6337 -19.6345,19.3706 -44.5702,19.3706 -25.7211,0 -41.625,-14.8596 -10.4062,-9.8179 -16.4929,-25.4738 -6.08666,-15.9209 -6.08666,-33.1688 0,-27.5966 16.49286,-48.8246 25.7212,-33.4342 76.967,-33.6996 11.388,0 14.3331,-2.9189 2.9452,-3.1841 2.9452,-14.3289 0,-28.1272 -4.3196,-40.5988 -4.3196,-12.7368 -14.1368,-12.7368 -5.8903,0 -10.6025,4.7763 -4.516,4.7764 -11.388,17.5132 -17.4747,33.6996 -36.5201,33.6996 -9.6208,0 -15.7075,-7.6952 -6.0866,-7.6951 -6.0866,-20.1667 0,-12.7368 7.4611,-25.4737 7.6574,-12.7369 20.6161,-22.2894 35.5383,-25.4738 74.2181,-25.4738 z m -13.155,153.6383 q -8.6392,0 -15.1185,9.5526 -6.2831,9.5527 -6.2831,22.8203 0,12.7368 4.5159,20.6974 4.5159,7.6951 11.977,7.6951 15.7076,0 15.7076,-35.8223 0,-14.5944 -2.3562,-19.6361 -2.1598,-5.0416 -8.4427,-5.307 z"
         style="font-style:normal;font-variant:normal;font-weight:normal;font-stretch:normal;font-size:medium;line-height:125%;font-family:'Cooper Black';-inkscape-font-specification:'Cooper Black, ';letter-spacing:0px;word-spacing:0px;fill:#000000;fill-opacity:1;stroke:none;stroke-width:1px;stroke-linecap:butt;stroke-linejoin:miter;stroke-opacity:1"
         id="path5595"
         inkscape:connector-curvature="0" />
      <path
         d="m 1328.5679,-2215.5552 q 10.4063,0 12.5661,3.9802 2.356,3.9803 4.1232,25.4738 0.9817,11.6754 6.0866,11.6754 3.9269,0 7.4611,-7.6952 15.7076,-33.1688 41.036,-33.1688 17.8673,0 29.2552,15.6557 5.4977,7.6952 9.0319,19.9013 3.5342,11.9407 3.5342,23.0855 0,12.4715 -4.3196,25.7391 -4.3196,13.0022 -11.1916,21.4934 -12.5661,16.1865 -30.8261,16.1865 -10.0135,0 -16.8856,-4.7764 -6.6757,-4.7763 -17.671,-19.3706 -4.1232,-5.5723 -7.6574,-5.5723 -5.4976,0 -7.2647,8.4911 -1.5708,8.2259 -1.5708,35.0264 0,40.0681 2.1598,54.6624 1.3744,7.9605 3.7306,11.1447 2.5525,2.9189 10.6025,6.103 17.671,7.1645 17.671,24.943 0,10.8795 -5.6939,19.1054 -5.694,7.9604 -15.1185,10.614 -18.8491,5.3069 -55.3691,5.3069 -34.753,0 -52.8166,-8.2257 -16.1002,-7.43 -16.1002,-25.7391 0,-13.7983 11.7806,-24.6777 5.694,-5.0417 7.8538,-9.022 2.1598,-4.2455 2.9452,-11.41 3.1414,-24.147 3.1414,-89.4233 0,-11.9409 -1.9634,-16.9825 -1.9634,-5.307 -7.8538,-8.4913 -13.9404,-7.4298 -13.9404,-21.4934 0,-12.7369 9.6208,-21.7588 9.6209,-9.2873 32.2005,-18.3092 30.237,-12.2061 51.4422,-12.4715 z"
         style="font-style:normal;font-variant:normal;font-weight:normal;font-stretch:normal;font-size:medium;line-height:125%;font-family:'Cooper Black';-inkscape-font-specification:'Cooper Black, ';letter-spacing:0px;word-spacing:0px;fill:#000000;fill-opacity:1;stroke:none;stroke-width:1px;stroke-linecap:butt;stroke-linejoin:miter;stroke-opacity:1"
         id="path5597"
         inkscape:connector-curvature="0" />
      <path
         d="m 1580.6942,-2090.4825 0,89.6886 q 0,15.9211 5.694,26.0045 5.8903,10.0833 14.9221,10.0833 7.6575,0 20.2236,-9.5526 2.9451,-2.3882 5.8903,-2.3882 4.7122,0 8.6391,7.6952 3.9269,7.6952 3.9269,16.7171 0,16.4517 -13.3514,31.5767 -27.8809,32.1075 -67.5424,32.1075 -31.4151,0 -50.4605,-23.8816 -19.0454,-24.147 -19.0454,-63.4188 l 0,-122.5923 q 0,-6.103 -1.1781,-7.4298 -0.9817,-1.5921 -5.4976,-1.5921 l -20.2234,0 q -5.694,0 -7.2648,-2.3882 -1.5708,-2.6535 -1.5708,-11.9408 l 0,-11.6755 q 0.1964,-7.9605 4.516,-11.6754 l 89.9256,-76.4211 q 3.3379,-2.3882 8.2465,-2.3882 l 15.9039,0 q 4.9086,0 6.4793,3.1843 1.7671,2.9189 1.7671,11.9407 l 0,35.8225 q 0,7.9605 1.7671,10.3486 1.9634,2.3882 8.0501,2.3882 l 36.3237,0 q 7.2648,0 9.4246,3.715 2.1598,3.4495 2.1598,15.1249 l 0,15.6557 q 0,12.7369 -2.7489,17.7786 -2.7488,4.7764 -10.0135,4.7764 l -35.5384,0 q -5.4976,0 -7.4611,2.6534 -1.9634,2.6535 -1.9634,10.0834 z"
         style="font-style:normal;font-variant:normal;font-weight:normal;font-stretch:normal;font-size:medium;line-height:125%;font-family:'Cooper Black';-inkscape-font-specification:'Cooper Black, ';letter-spacing:0px;word-spacing:0px;fill:#000000;fill-opacity:1;stroke:none;stroke-width:1px;stroke-linecap:butt;stroke-linejoin:miter;stroke-opacity:1"
         id="path5599"
         inkscape:connector-curvature="0" />
      <path
         d="m 1840.6946,-2071.7349 -92.2817,0 q -6.0867,0 -6.0867,7.1645 0,17.2478 13.7441,32.6382 13.9404,15.125 29.8443,15.125 9.4245,0 20.8125,-4.7764 11.5843,-5.0416 19.0454,-12.2061 6.6757,-6.3684 10.6026,-6.3684 5.1049,0 10.0135,8.4911 4.9087,8.4913 4.9087,17.5132 0,19.1054 -17.671,36.8838 -31.2188,31.5768 -72.0584,31.5768 -41.2322,0 -69.1132,-32.3727 -13.5477,-15.9211 -22.3832,-38.4759 -11.5843,-29.9847 -11.5843,-63.1536 0,-44.579 20.0271,-80.1361 17.2783,-30.7808 43.9811,-45.9058 20.0271,-11.41 43.3921,-11.41 37.3054,0 63.4192,28.6579 13.155,14.3289 21.2052,33.965 9.2281,22.2894 9.2281,43.5175 0,17.2479 -5.3013,28.3926 -5.3012,10.8794 -13.7441,10.8794 z m -87.1768,-49.6207 19.8308,0 q 12.566,0 12.566,-15.6557 0,-14.329 -6.0867,-23.3508 -6.0866,-9.022 -15.9038,-9.022 -10.9953,0 -17.2783,11.6754 -5.8904,10.8794 -5.8904,22.0241 0,7.9606 2.7488,11.1448 2.9452,3.1842 10.0136,3.1842 z"
         style="font-style:normal;font-variant:normal;font-weight:normal;font-stretch:normal;font-size:medium;line-height:125%;font-family:'Cooper Black';-inkscape-font-specification:'Cooper Black, ';letter-spacing:0px;word-spacing:0px;fill:#000000;fill-opacity:1;stroke:none;stroke-width:1px;stroke-linecap:butt;stroke-linejoin:miter;stroke-opacity:1"
         id="path5601"
         inkscape:connector-curvature="0" />
      <path
         d="m 1951.4329,-2160.0045 q 9.8172,0 32.0041,5.8377 4.5159,1.0614 7.461,1.0614 3.3379,0 12.9588,-4.7763 4.5159,-2.3882 7.6574,-2.3882 9.0318,0 18.26,15.6557 7.4611,12.4715 12.1733,27.3312 4.7123,14.8596 4.7123,25.7391 0,10.6139 -5.4977,17.7785 -5.4976,6.8991 -13.744,6.8991 -6.8721,0 -12.3697,-4.511 -5.3013,-4.5109 -17.2783,-19.9013 -12.566,-16.4518 -20.8125,-16.4518 -5.4977,0 -9.6209,5.5724 -3.9269,5.3071 -3.9269,12.7369 0,13.0022 18.4564,24.4122 33.1822,20.1668 50.8532,44.0484 14.9221,20.1666 14.9221,49.3552 0,36.8838 -23.9539,61.5615 -20.6162,21.4934 -50.4606,21.4934 -7.6574,0 -27.8808,-3.4495 -19.0454,-2.9189 -21.4016,-2.9189 -2.5524,0 -5.8903,0.7961 -5.694,1.0614 -8.2464,1.0614 -9.2282,0 -14.5295,-6.3684 -8.0501,-9.818 -14.9222,-30.7807 -6.872,-21.2281 -6.872,-36.3531 0,-24.4123 14.1367,-24.4123 5.4977,0 10.0136,5.0416 4.7123,4.7763 19.4381,26.0044 8.0502,11.6754 13.3514,16.1865 5.3013,4.2455 11.388,4.2455 6.4793,0 10.4062,-4.511 3.9269,-4.7763 3.9269,-12.4714 0,-11.9408 -15.1185,-21.7588 -31.6114,-20.9627 -45.7482,-43.2522 -13.9404,-22.2895 -13.9404,-51.4781 0,-31.5768 14.3331,-54.397 20.4197,-32.6382 55.7618,-32.6382 z"
         style="font-style:normal;font-variant:normal;font-weight:normal;font-stretch:normal;font-size:medium;line-height:125%;font-family:'Cooper Black';-inkscape-font-specification:'Cooper Black, ';letter-spacing:0px;word-spacing:0px;fill:#000000;fill-opacity:1;stroke:none;stroke-width:1px;stroke-linecap:butt;stroke-linejoin:miter;stroke-opacity:1"
         id="path5603"
         inkscape:connector-curvature="0" />
      <path
         d="m 2446.0104,-2270.9767 0,242.2655 q 0,20.6974 1.178,26.5352 1.3745,5.8377 7.2648,11.4101 7.0684,6.6337 9.4246,11.6755 2.5524,5.0416 2.5524,12.2061 0,21.228 -31.6114,32.3728 -28.4699,9.8179 -56.9399,9.8179 -6.283,0 -8.2465,-2.6534 -1.767,-2.3882 -2.356,-11.9409 -0.9818,-13.5328 -7.0685,-13.5328 -3.3378,0 -10.4062,7.9605 -20.0271,22.0241 -44.5702,22.0241 -30.4333,0 -54.78,-30.5153 -14.3331,-18.3092 -23.1686,-42.1908 -11.7806,-31.0461 -11.7806,-62.8883 0,-37.4145 15.3148,-72.1754 14.1368,-32.1075 38.4834,-49.3554 20.4198,-14.3289 40.2506,-14.3289 22.776,0 40.8396,13.7982 2.9452,2.1228 4.7123,2.1228 6.2831,0 6.2831,-22.8201 0,-9.8181 -3.5343,-14.8597 -3.3379,-5.3071 -12.1733,-9.022 -12.3697,-5.307 -12.3697,-18.5746 0,-19.3706 28.4699,-30.25 50.2641,-18.8399 67.3461,-18.8399 16.8856,0 16.8856,21.7588 z m -106.615,133.4717 q -12.7623,0 -20.2234,18.3091 -10.0136,24.4123 -10.0136,64.215 0,36.0878 9.6209,54.3969 6.8721,13.2677 18.6527,13.2677 12.7624,0 18.4564,-19.9014 5.8903,-20.1667 5.8903,-64.7457 0,-40.8641 -6.872,-54.3969 -5.3013,-10.6141 -15.5113,-11.1447 z"
         style="font-style:normal;font-variant:normal;font-weight:normal;font-stretch:normal;font-size:medium;line-height:125%;font-family:'Cooper Black';-inkscape-font-specification:'Cooper Black, ';letter-spacing:0px;word-spacing:0px;fill:#000000;fill-opacity:1;stroke:none;stroke-width:1px;stroke-linecap:butt;stroke-linejoin:miter;stroke-opacity:1"
         id="path5605"
         inkscape:connector-curvature="0" />
      <path
         d="m 2653.7222,-1991.7349 -92.2818,0 q -6.0867,0 -6.0867,7.1645 0,17.2478 13.7441,32.6382 13.9405,15.125 29.8443,15.125 9.4246,0 20.8126,-4.7764 11.5842,-5.0416 19.0453,-12.2061 6.6757,-6.3684 10.6026,-6.3684 5.105,0 10.0136,8.4911 4.9086,8.4913 4.9086,17.5132 0,19.1054 -17.671,36.8838 -31.2187,31.5768 -72.0584,31.5768 -41.2322,0 -69.1131,-32.3727 -13.5477,-15.9211 -22.3832,-38.4759 -11.5843,-29.9847 -11.5843,-63.1536 0,-44.579 20.027,-80.1361 17.2783,-30.7808 43.9812,-45.9058 20.027,-11.41 43.392,-11.41 37.3054,0 63.4193,28.6579 13.155,14.3289 21.2051,33.965 9.2282,22.2894 9.2282,43.5175 0,17.2479 -5.3013,28.3926 -5.3013,10.8794 -13.7441,10.8794 z m -87.1768,-49.6207 19.8307,0 q 12.566,0 12.566,-15.6557 0,-14.329 -6.0866,-23.3508 -6.0867,-9.022 -15.9039,-9.022 -10.9953,0 -17.2783,11.6754 -5.8904,10.8794 -5.8904,22.0241 0,7.9606 2.7489,11.1448 2.9451,3.1842 10.0136,3.1842 z"
         style="font-style:normal;font-variant:normal;font-weight:normal;font-stretch:normal;font-size:medium;line-height:125%;font-family:'Cooper Black';-inkscape-font-specification:'Cooper Black, ';letter-spacing:0px;word-spacing:0px;fill:#000000;fill-opacity:1;stroke:none;stroke-width:1px;stroke-linecap:butt;stroke-linejoin:miter;stroke-opacity:1"
         id="path5607"
         inkscape:connector-curvature="0" />
      <path
         d="m 2815.178,-2094.7096 0,85.1777 q 0,56.5197 1.178,65.807 1.3744,9.2873 9.8173,14.329 7.2647,4.2455 9.6208,7.9605 2.5525,3.715 2.5525,10.6141 0,8.7565 -4.7123,15.9211 -4.5159,7.1644 -12.1733,10.0832 -14.1368,5.8377 -47.7117,5.8377 -37.8944,0 -53.2093,-7.695 -7.0684,-3.4496 -11.5842,-10.6141 -4.516,-7.4298 -4.516,-15.3904 0,-6.3684 2.3562,-9.818 2.5524,-3.4495 10.7989,-8.2259 7.6574,-4.5109 9.4245,-24.6777 3.1415,-34.4956 3.1415,-98.1799 0,-64.7456 -2.7488,-83.3202 -2.7489,-18.5745 -13.7441,-27.5965 -8.2465,-6.3684 -11.388,-11.9408 -2.9451,-5.8378 -2.9451,-14.0637 0,-13.0021 9.2282,-22.5548 9.2281,-9.8179 29.4516,-18.0438 13.5477,-5.5725 35.1456,-10.6141 21.5978,-5.0416 31.4151,-5.0416 15.5112,0 15.5112,26.0043 0,8.4913 -1.9635,39.0066 -2.5525,47.4979 -2.9451,87.0353 z"
         style="font-style:normal;font-variant:normal;font-weight:normal;font-stretch:normal;font-size:medium;line-height:125%;font-family:'Cooper Black';-inkscape-font-specification:'Cooper Black, ';letter-spacing:0px;word-spacing:0px;fill:#000000;fill-opacity:1;stroke:none;stroke-width:1px;stroke-linecap:butt;stroke-linejoin:miter;stroke-opacity:1"
         id="path5609"
         inkscape:connector-curvature="0" />
      <path
         d="m 1099.7182,-1617.8484 q 34.9492,0 61.652,23.6161 25.3285,22.555 25.3285,55.9891 0,23.0856 -11.7807,37.4145 -10.9952,13.5329 -26.5065,13.5329 -16.2966,0 -24.543,-15.9211 -2.5525,-5.0416 -7.4611,-25.739 -5.3012,-22.2894 -20.2234,-22.2894 -10.799,0 -18.2601,12.7368 -7.2647,12.7368 -7.2647,31.3114 0,31.8422 16.8856,56.5199 13.7441,19.9012 34.5566,19.9012 9.8173,0 16.4929,-2.1228 6.6757,-2.3882 17.4747,-9.2873 2.7487,-1.8574 6.0867,-1.8574 6.6756,0 11.7805,8.4913 5.1051,8.4911 5.1051,19.9013 0,11.9407 -7.2648,25.2083 -7.2648,13.0022 -19.0454,22.8202 -25.5248,21.2281 -60.2777,21.2281 -40.4469,0 -68.9168,-31.8421 -36.52003,-40.3334 -36.52003,-102.691 0,-59.9693 33.96753,-99.2412 32.3968,-37.6798 78.7341,-37.6798 z"
         style="font-style:normal;font-variant:normal;font-weight:normal;font-stretch:normal;font-size:medium;line-height:125%;font-family:'Cooper Black';-inkscape-font-specification:'Cooper Black, ';letter-spacing:0px;word-spacing:0px;fill:#000000;fill-opacity:1;stroke:none;stroke-width:1px;stroke-linecap:butt;stroke-linejoin:miter;stroke-opacity:1"
         id="path5611"
         inkscape:connector-curvature="0" />
      <path
         d="m 1336.0218,-1477.0091 0,143.8203 q 0,46.1711 22.5795,46.1711 5.694,0 11.1917,-4.2457 5.4976,-4.5109 7.6574,-10.8795 4.3196,-12.7368 4.3196,-56.785 0,-43.5176 -2.1598,-59.4387 -0.7854,-6.6337 -2.7488,-9.5526 -1.9634,-3.1843 -7.4611,-7.1645 -11.1917,-7.9605 -11.1917,-20.1667 0,-16.4517 19.2418,-22.8202 36.52,-12.2062 72.0583,-12.2062 19.8308,0 19.8308,28.3927 0,2.9188 -0.1963,11.9407 -0.3927,12.7369 -0.5891,31.0461 l 0,117.0199 q 0,9.0219 11.388,16.4517 9.6209,6.3685 9.6209,18.5746 0,23.8816 -41.8214,36.8838 -24.543,7.6952 -47.5153,7.6952 -9.4245,0 -12.9587,-2.9189 -3.3378,-2.9188 -3.9269,-11.4101 -0.9816,-16.4518 -7.461,-16.4518 -2.3562,0 -4.3196,1.5922 -1.9635,1.3267 -11.977,10.6141 -19.8308,18.3091 -42.6067,18.3091 -37.6981,0 -53.2093,-29.4539 -13.1551,-24.6777 -13.1551,-83.0549 0,-21.7588 0.1964,-37.1492 0,-9.0219 0,-12.2062 0,-22.8202 -3.1415,-33.4342 -2.9452,-10.8794 -10.9953,-16.9825 -7.6574,-5.3069 -9.8172,-8.4912 -1.9634,-3.1843 -1.9634,-8.7566 0,-20.1667 22.5795,-26.8004 38.4835,-11.4102 76.9669,-11.4102 11.5844,0 11.5844,13.2677 z"
         style="font-style:normal;font-variant:normal;font-weight:normal;font-stretch:normal;font-size:medium;line-height:125%;font-family:'Cooper Black';-inkscape-font-specification:'Cooper Black, ';letter-spacing:0px;word-spacing:0px;fill:#000000;fill-opacity:1;stroke:none;stroke-width:1px;stroke-linecap:butt;stroke-linejoin:miter;stroke-opacity:1"
         id="path5613"
         inkscape:connector-curvature="0" />
      <path
         d="m 1716.6587,-1363.8647 -92.2818,0 q -6.0867,0 -6.0867,7.1644 0,17.2479 13.7441,32.6383 13.9405,15.125 29.8443,15.125 9.4246,0 20.8125,-4.7763 11.5843,-5.0416 19.0454,-12.2062 6.6758,-6.3684 10.6027,-6.3684 5.1049,0 10.0134,8.4912 4.9087,8.4913 4.9087,17.5132 0,19.1053 -17.671,36.8838 -31.2187,31.5768 -72.0583,31.5768 -41.2323,0 -69.1132,-32.3729 -13.5477,-15.921 -22.3833,-38.4759 -11.5843,-29.9846 -11.5843,-63.1536 0,-44.5789 20.0272,-80.136 17.2783,-30.7807 43.9811,-45.9057 20.0271,-11.41 43.3921,-11.41 37.3053,0 63.4191,28.6578 13.1551,14.329 21.2052,33.9649 9.2282,22.2895 9.2282,43.5177 0,17.2477 -5.3013,28.3925 -5.3013,10.8794 -13.7441,10.8794 z m -87.1769,-49.6206 19.8308,0 q 12.566,0 12.566,-15.6558 0,-14.3289 -6.0866,-23.3509 -6.0867,-9.0219 -15.9039,-9.0219 -10.9952,0 -17.2783,11.6755 -5.8903,10.8793 -5.8903,22.0241 0,7.9606 2.7488,11.1447 2.9452,3.1843 10.0135,3.1843 z"
         style="font-style:normal;font-variant:normal;font-weight:normal;font-stretch:normal;font-size:medium;line-height:125%;font-family:'Cooper Black';-inkscape-font-specification:'Cooper Black, ';letter-spacing:0px;word-spacing:0px;fill:#000000;fill-opacity:1;stroke:none;stroke-width:1px;stroke-linecap:butt;stroke-linejoin:miter;stroke-opacity:1"
         id="path5615"
         inkscape:connector-curvature="0" />
      <path
         d="m 1857.6948,-1547.685 q 10.4063,0 12.566,3.9803 2.3562,3.9802 4.1233,25.4736 0.9817,11.6755 6.0867,11.6755 3.9268,0 7.461,-7.6951 15.7076,-33.169 41.036,-33.169 17.8673,0 29.2553,15.6558 5.4976,7.6951 9.0318,19.9014 3.5342,11.9407 3.5342,23.0855 0,12.4715 -4.3195,25.739 -4.3196,13.0023 -11.1916,21.4934 -12.5661,16.1865 -30.8261,16.1865 -10.0136,0 -16.8856,-4.7763 -6.6758,-4.7763 -17.671,-19.3707 -4.1233,-5.5724 -7.6575,-5.5724 -5.4976,0 -7.2647,8.4913 -1.5707,8.2259 -1.5707,35.0263 0,40.068 2.1598,54.6623 1.3744,7.9606 3.7305,11.1448 2.5524,2.9188 10.6026,6.1031 17.671,7.1645 17.671,24.943 0,10.8794 -5.694,19.1053 -5.694,7.9605 -15.1185,10.614 -18.849,5.307 -55.3691,5.307 -34.753,0 -52.8166,-8.2259 -16.1003,-7.4298 -16.1003,-25.7391 0,-13.7982 11.7807,-24.6775 5.694,-5.0418 7.8538,-9.022 2.1598,-4.2457 2.9451,-11.41 3.1416,-24.147 3.1416,-89.4234 0,-11.9408 -1.9635,-16.9824 -1.9634,-5.3071 -7.8537,-8.4913 -13.9405,-7.4298 -13.9405,-21.4935 0,-12.7368 9.6209,-21.7588 9.6208,-9.2872 32.2004,-18.3092 30.237,-12.2062 51.4422,-12.4715 z"
         style="font-style:normal;font-variant:normal;font-weight:normal;font-stretch:normal;font-size:medium;line-height:125%;font-family:'Cooper Black';-inkscape-font-specification:'Cooper Black, ';letter-spacing:0px;word-spacing:0px;fill:#000000;fill-opacity:1;stroke:none;stroke-width:1px;stroke-linecap:butt;stroke-linejoin:miter;stroke-opacity:1"
         id="path5617"
         inkscape:connector-curvature="0" />
      <path
         d="m 2080.5455,-1485.0933 q 11.977,0 14.9222,2.9189 2.9451,2.6536 2.9451,13.7983 0,9.818 4.7123,9.818 1.9635,0 13.1551,-10.0834 8.4427,-7.6952 21.4015,-12.7368 13.155,-5.307 23.7577,-5.307 24.9357,0 44.5701,23.3509 14.9221,17.7785 23.1686,44.8443 8.6392,28.3926 8.6392,59.704 0,66.8685 -33.3786,110.1207 -25.721,33.6996 -58.5106,33.6996 -16.6892,0 -34.3602,-10.6141 -3.5342,-2.1227 -5.694,-2.1227 -5.8903,0 -5.8903,15.921 0,20.9628 10.4063,30.25 9.6208,8.7566 11.3879,11.6755 1.9635,3.1841 1.9635,10.3486 0,15.9211 -13.1551,24.4124 -13.155,8.7566 -37.1091,8.7566 -42.6067,0 -74.6108,-23.0856 -16.2966,-11.6754 -16.2966,-28.9233 0,-7.9605 2.3562,-12.2061 2.5525,-3.9803 9.6208,-8.4912 10.2099,-6.3684 12.3697,-23.0856 2.3561,-16.7171 3.5342,-96.0571 -1.3744,-65.2764 -3.5342,-73.2369 -0.7853,-2.6535 -2.3561,-3.4495 -1.3744,-0.7961 -9.6208,-2.9189 -6.2831,-1.5921 -10.21,-7.6952 -3.9269,-6.3684 -3.9269,-15.125 0,-10.6141 5.4977,-18.5746 5.4976,-8.2259 17.8673,-15.9211 48.1043,-29.454 76.3779,-29.9847 z m 19.4381,100.3028 -2.9451,72.9716 q -0.1964,4.5109 -0.1964,8.7565 0,8.2259 5.3013,13.2676 5.3012,5.0416 14.1368,5.0416 27.0954,0 27.0954,-60.2346 0,-39.0067 -11.3879,-54.9277 -7.0684,-9.8181 -16.8856,-9.8181 -13.9404,0 -15.1185,24.9431 z"
         style="font-style:normal;font-variant:normal;font-weight:normal;font-stretch:normal;font-size:medium;line-height:125%;font-family:'Cooper Black';-inkscape-font-specification:'Cooper Black, ';letter-spacing:0px;word-spacing:0px;fill:#000000;fill-opacity:1;stroke:none;stroke-width:1px;stroke-linecap:butt;stroke-linejoin:miter;stroke-opacity:1"
         id="path5619"
         inkscape:connector-curvature="0" />
      <path
         d="m 2425.1162,-1555.2567 q 35.931,0 63.0265,25.2083 19.438,18.0439 31.2187,46.9671 12.1734,30.2501 12.1734,63.1536 0,57.5812 -39.0726,97.9146 -37.3054,38.4759 -85.4098,38.4759 -46.9262,0 -75.9852,-36.0877 -28.2736,-35.0264 -28.2736,-91.2808 0,-62.6229 34.5567,-102.4256 36.1273,-41.9254 87.7659,-41.9254 z m -15.7076,61.296 q -8.6391,0 -13.9405,8.7566 -5.1049,8.4913 -5.1049,22.8202 0,15.9211 4.3196,43.5177 4.5159,27.3311 10.6025,48.5592 6.0867,21.7587 19.8309,21.7587 17.4746,0 17.4746,-29.9846 0,-22.2895 -4.5159,-50.6821 -4.3196,-28.3925 -10.6026,-46.1711 -6.4794,-18.0439 -18.0637,-18.5746 z"
         style="font-style:normal;font-variant:normal;font-weight:normal;font-stretch:normal;font-size:medium;line-height:125%;font-family:'Cooper Black';-inkscape-font-specification:'Cooper Black, ';letter-spacing:0px;word-spacing:0px;fill:#000000;fill-opacity:1;stroke:none;stroke-width:1px;stroke-linecap:butt;stroke-linejoin:miter;stroke-opacity:1"
         id="path5621"
         inkscape:connector-curvature="0" />
    </g>
    <g
       id="g5695"
       transform="matrix(1.1719688,0,0,1.1674011,821.22616,344.32326)"
       style="fill:#f7ead1;fill-opacity:1">
      <path
         d="m -199.58167,-2001.6531 0,-139.5747 q 0,-27.0659 -2.74882,-34.2302 -2.74882,-7.43 -14.92216,-11.9409 -17.67098,-6.8991 -17.67098,-23.8816 0,-11.9408 7.46107,-18.3092 7.46109,-6.3685 21.59788,-6.3685 4.71226,0 23.36496,0.7961 l 11.78065,0 q 32.59315,-0.2654 38.09078,-0.5307 5.69399,-0.5306 40.054261,-4.7763 11.38791,-1.5921 20.81251,-1.5921 32.2004,0 57.33248,17.7785 43.78475,30.7808 43.78475,97.6492 0,54.1317 -30.62965,86.7699 -28.86267,30.5154 -69.89861,30.5154 -10.40625,0 -25.52475,-1.8575 -8.050081,-0.7961 -10.013571,-0.7961 -5.694,0 -5.694,8.7566 l 0,1.5921 1.37443,43.5176 q 0.39268,12.7368 3.33791,19.1052 3.14145,6.1032 12.566041,12.7369 12.76233,9.2874 12.76233,20.1667 0,16.7171 -18.849011,25.7391 -18.8491,9.0218 -53.40567,9.0218 -72.64737,0 -72.64737,-33.6995 0,-7.9605 3.14151,-12.2062 3.1415,-4.2456 14.72582,-12.2061 7.06839,-5.0416 8.24646,-14.0636 1.17806,-9.022 1.57075,-58.1119 z m 88.55123,-173.2743 0,90.2193 q 0,10.3488 3.33791,12.4716 5.69391,3.7149 14.333061,3.7149 12.95871,0 21.79424,-9.8179 12.76242,-14.0636 12.76242,-47.2326 0,-34.4957 -14.9222,-49.8859 -9.42451,-9.818 -22.77591,-9.818 -14.529521,0 -14.529521,10.3486 z"
         style="font-style:normal;font-variant:normal;font-weight:normal;font-stretch:normal;font-size:medium;line-height:125%;font-family:'Cooper Black';-inkscape-font-specification:'Cooper Black, ';letter-spacing:0px;word-spacing:0px;fill:#f7ead1;fill-opacity:1;stroke:none;stroke-width:1px;stroke-linecap:butt;stroke-linejoin:miter;stroke-opacity:1"
         id="path5593-8"
         inkscape:connector-curvature="0" />
      <path
         d="m 129.23401,-2084.0849 q 34.1639,0 57.9215,23.3509 12.5661,12.4715 17.4747,28.6579 5.1049,15.9211 5.1049,44.0483 l -0.3927,39.5373 q 0,41.1295 4.3196,53.3356 2.1598,5.8377 4.1232,7.4298 1.9635,1.5922 8.2465,2.9189 6.283,1.3268 6.283,11.1447 0,12.7369 -7.6574,26.5352 -7.4611,13.7982 -19.438,23.0855 -14.7259,11.6754 -30.8261,11.6754 -20.6162,0 -32.5932,-19.1052 -4.1232,-6.8991 -7.6574,-6.8991 -3.9269,0 -10.4062,6.6337 -19.6345,19.3706 -44.570199,19.3706 -25.7211,0 -41.625,-14.8596 -10.4062,-9.8179 -16.4929,-25.4738 -6.08666,-15.9209 -6.08666,-33.1688 0,-27.5966 16.49286,-48.8246 25.7212,-33.4342 76.966999,-33.6996 11.388,0 14.3331,-2.9189 2.9452,-3.1841 2.9452,-14.3289 0,-28.1272 -4.3196,-40.5988 -4.3196,-12.7368 -14.1368,-12.7368 -5.8903,0 -10.602499,4.7763 -4.516,4.7764 -11.388,17.5132 -17.4747,33.6996 -36.5201,33.6996 -9.6208,0 -15.7075,-7.6952 -6.0866,-7.6951 -6.0866,-20.1667 0,-12.7368 7.4611,-25.4737 7.6574,-12.7369 20.6161,-22.2894 35.5383,-25.4738 74.218099,-25.4738 z m -13.155,153.6383 q -8.6392,0 -15.1185,9.5526 -6.283099,9.5527 -6.283099,22.8203 0,12.7368 4.5159,20.6974 4.515899,7.6951 11.976999,7.6951 15.7076,0 15.7076,-35.8223 0,-14.5944 -2.3562,-19.6361 -2.1598,-5.0416 -8.4427,-5.307 z"
         style="font-style:normal;font-variant:normal;font-weight:normal;font-stretch:normal;font-size:medium;line-height:125%;font-family:'Cooper Black';-inkscape-font-specification:'Cooper Black, ';letter-spacing:0px;word-spacing:0px;fill:#f7ead1;fill-opacity:1;stroke:none;stroke-width:1px;stroke-linecap:butt;stroke-linejoin:miter;stroke-opacity:1"
         id="path5595-4"
         inkscape:connector-curvature="0" />
      <path
         d="m 348.00211,-2167.9417 q 10.4063,0 12.5661,3.9802 2.356,3.9803 4.1232,25.4738 0.9817,11.6754 6.0866,11.6754 3.9269,0 7.4611,-7.6952 15.7076,-33.1688 41.036,-33.1688 17.8673,0 29.2552,15.6557 5.4977,7.6952 9.0319,19.9013 3.5342,11.9407 3.5342,23.0855 0,12.4715 -4.3196,25.7391 -4.3196,13.0022 -11.1916,21.4934 -12.5661,16.1865 -30.8261,16.1865 -10.0135,0 -16.8856,-4.7764 -6.6757,-4.7763 -17.671,-19.3706 -4.1232,-5.5723 -7.6574,-5.5723 -5.4976,0 -7.2647,8.4911 -1.5708,8.2259 -1.5708,35.0264 0,40.0681 2.1598,54.6624 1.3744,7.9605 3.7306,11.1447 2.5525,2.9189 10.6025,6.103 17.671,7.1645 17.671,24.943 0,10.8795 -5.6939,19.1054 -5.694,7.9604 -15.1185,10.614 -18.8491,5.3069 -55.3691,5.3069 -34.753,0 -52.8166,-8.2257 -16.1002,-7.43 -16.1002,-25.7391 0,-13.7983 11.7806,-24.6777 5.694,-5.0417 7.8538,-9.022 2.1598,-4.2455 2.9452,-11.41 3.1414,-24.147 3.1414,-89.4233 0,-11.9409 -1.9634,-16.9825 -1.9634,-5.307 -7.8538,-8.4913 -13.9404,-7.4298 -13.9404,-21.4934 0,-12.7369 9.6208,-21.7588 9.6209,-9.2873 32.2005,-18.3092 30.237,-12.2061 51.4422,-12.4715 z"
         style="font-style:normal;font-variant:normal;font-weight:normal;font-stretch:normal;font-size:medium;line-height:125%;font-family:'Cooper Black';-inkscape-font-specification:'Cooper Black, ';letter-spacing:0px;word-spacing:0px;fill:#f7ead1;fill-opacity:1;stroke:none;stroke-width:1px;stroke-linecap:butt;stroke-linejoin:miter;stroke-opacity:1"
         id="path5597-6"
         inkscape:connector-curvature="0" />
      <path
         d="m 600.12841,-2042.869 0,89.6886 q 0,15.9211 5.694,26.0045 5.8903,10.0833 14.9221,10.0833 7.6575,0 20.2236,-9.5526 2.9451,-2.3882 5.8903,-2.3882 4.7122,0 8.6391,7.6952 3.9269,7.6952 3.9269,16.7171 0,16.4517 -13.3514,31.5767 -27.8809,32.1075 -67.5424,32.1075 -31.4151,0 -50.4605,-23.8816 -19.0454,-24.147 -19.0454,-63.4188 l 0,-122.5923 q 0,-6.103 -1.1781,-7.4298 -0.9817,-1.5921 -5.4976,-1.5921 l -20.2234,0 q -5.694,0 -7.2648,-2.3882 -1.5708,-2.6535 -1.5708,-11.9408 l 0,-11.6755 q 0.1964,-7.9605 4.516,-11.6754 l 89.9256,-76.4211 q 3.3379,-2.3882 8.2465,-2.3882 l 15.9039,0 q 4.9086,0 6.4793,3.1843 1.7671,2.9189 1.7671,11.9407 l 0,35.8225 q 0,7.9605 1.7671,10.3486 1.9634,2.3882 8.0501,2.3882 l 36.3237,0 q 7.2648,0 9.4246,3.715 2.1598,3.4495 2.1598,15.1249 l 0,15.6557 q 0,12.7369 -2.7489,17.7786 -2.7488,4.7764 -10.0135,4.7764 l -35.5384,0 q -5.4976,0 -7.4611,2.6534 -1.9634,2.6535 -1.9634,10.0834 z"
         style="font-style:normal;font-variant:normal;font-weight:normal;font-stretch:normal;font-size:medium;line-height:125%;font-family:'Cooper Black';-inkscape-font-specification:'Cooper Black, ';letter-spacing:0px;word-spacing:0px;fill:#f7ead1;fill-opacity:1;stroke:none;stroke-width:1px;stroke-linecap:butt;stroke-linejoin:miter;stroke-opacity:1"
         id="path5599-8"
         inkscape:connector-curvature="0" />
      <path
         d="m 860.12877,-2024.1214 -92.2817,0 q -6.08666,0 -6.08666,7.1645 0,17.2478 13.74406,32.6382 13.9404,15.125 29.8443,15.125 9.4245,0 20.8125,-4.7764 11.5843,-5.0416 19.0454,-12.2061 6.6757,-6.3684 10.6026,-6.3684 5.1049,0 10.0135,8.4911 4.9087,8.4913 4.9087,17.5132 0,19.1054 -17.671,36.8838 -31.2188,31.5768 -72.0584,31.5768 -41.23216,0 -69.11316,-32.3727 -13.5477,-15.9211 -22.3832,-38.4759 -11.5843,-29.9847 -11.5843,-63.1536 0,-44.579 20.0271,-80.1361 17.2783,-30.7808 43.9811,-45.9058 20.0271,-11.41 43.39206,-11.41 37.3054,0 63.4192,28.6579 13.155,14.3289 21.2052,33.965 9.2281,22.2894 9.2281,43.5175 0,17.2479 -5.3013,28.3926 -5.3012,10.8794 -13.7441,10.8794 z m -87.1768,-49.6207 19.8308,0 q 12.566,0 12.566,-15.6557 0,-14.329 -6.0867,-23.3508 -6.0866,-9.022 -15.9038,-9.022 -10.9953,0 -17.2783,11.6754 -5.89036,10.8794 -5.89036,22.0241 0,7.9606 2.7488,11.1448 2.94516,3.1842 10.01356,3.1842 z"
         style="font-style:normal;font-variant:normal;font-weight:normal;font-stretch:normal;font-size:medium;line-height:125%;font-family:'Cooper Black';-inkscape-font-specification:'Cooper Black, ';letter-spacing:0px;word-spacing:0px;fill:#f7ead1;fill-opacity:1;stroke:none;stroke-width:1px;stroke-linecap:butt;stroke-linejoin:miter;stroke-opacity:1"
         id="path5601-2"
         inkscape:connector-curvature="0" />
      <path
         d="m 970.86707,-2112.391 q 9.8172,0 32.00413,5.8377 4.5159,1.0614 7.461,1.0614 3.3379,0 12.9588,-4.7763 4.5159,-2.3882 7.6574,-2.3882 9.0318,0 18.26,15.6557 7.4611,12.4715 12.1733,27.3312 4.7123,14.8596 4.7123,25.7391 0,10.6139 -5.4977,17.7785 -5.4976,6.8991 -13.744,6.8991 -6.8721,0 -12.3697,-4.511 -5.3013,-4.5109 -17.2783,-19.9013 -12.566,-16.4518 -20.81253,-16.4518 -5.4977,0 -9.6209,5.5724 -3.9269,5.3071 -3.9269,12.7369 0,13.0022 18.45643,24.4122 33.1822,20.1668 50.8532,44.0484 14.9221,20.1666 14.9221,49.3552 0,36.8838 -23.9539,61.5615 -20.6162,21.4934 -50.46063,21.4934 -7.6574,0 -27.8808,-3.4495 -19.0454,-2.9189 -21.4016,-2.9189 -2.5524,0 -5.8903,0.7961 -5.694,1.0614 -8.2464,1.0614 -9.2282,0 -14.5295,-6.3684 -8.0501,-9.818 -14.9222,-30.7807 -6.872,-21.2281 -6.872,-36.3531 0,-24.4123 14.1367,-24.4123 5.4977,0 10.0136,5.0416 4.7123,4.7763 19.4381,26.0044 8.0502,11.6754 13.3514,16.1865 5.3013,4.2455 11.388,4.2455 6.4793,0 10.4062,-4.511 3.9269,-4.7763 3.9269,-12.4714 0,-11.9408 -15.1185,-21.7588 -31.6114,-20.9627 -45.7482,-43.2522 -13.9404,-22.2895 -13.9404,-51.4781 0,-31.5768 14.3331,-54.397 20.4197,-32.6382 55.7618,-32.6382 z"
         style="font-style:normal;font-variant:normal;font-weight:normal;font-stretch:normal;font-size:medium;line-height:125%;font-family:'Cooper Black';-inkscape-font-specification:'Cooper Black, ';letter-spacing:0px;word-spacing:0px;fill:#f7ead1;fill-opacity:1;stroke:none;stroke-width:1px;stroke-linecap:butt;stroke-linejoin:miter;stroke-opacity:1"
         id="path5603-0"
         inkscape:connector-curvature="0" />
      <path
         d="m 1465.4446,-2223.3632 0,242.2655 q 0,20.6974 1.178,26.5352 1.3745,5.8377 7.2648,11.4101 7.0684,6.6337 9.4246,11.6755 2.5524,5.0416 2.5524,12.2061 0,21.228 -31.6114,32.3728 -28.4699,9.8179 -56.9399,9.8179 -6.283,0 -8.2465,-2.6534 -1.767,-2.3882 -2.356,-11.9409 -0.9818,-13.5328 -7.0685,-13.5328 -3.3378,0 -10.4062,7.9605 -20.0271,22.0241 -44.5702,22.0241 -30.4333,0 -54.78,-30.5153 -14.3331,-18.3092 -23.1686,-42.1908 -11.7806,-31.0461 -11.7806,-62.8883 0,-37.4145 15.3148,-72.1754 14.1368,-32.1075 38.4834,-49.3554 20.4198,-14.3289 40.2506,-14.3289 22.776,0 40.8396,13.7982 2.9452,2.1228 4.7123,2.1228 6.2831,0 6.2831,-22.8201 0,-9.8181 -3.5343,-14.8597 -3.3379,-5.3071 -12.1733,-9.022 -12.3697,-5.307 -12.3697,-18.5746 0,-19.3706 28.4699,-30.25 50.2641,-18.8399 67.3461,-18.8399 16.8856,0 16.8856,21.7588 z m -106.615,133.4717 q -12.7623,0 -20.2234,18.3091 -10.0136,24.4123 -10.0136,64.215 0,36.0878 9.6209,54.3969 6.8721,13.2677 18.6527,13.2677 12.7624,0 18.4564,-19.9014 5.8903,-20.1667 5.8903,-64.7457 0,-40.8641 -6.872,-54.3969 -5.3013,-10.6141 -15.5113,-11.1447 z"
         style="font-style:normal;font-variant:normal;font-weight:normal;font-stretch:normal;font-size:medium;line-height:125%;font-family:'Cooper Black';-inkscape-font-specification:'Cooper Black, ';letter-spacing:0px;word-spacing:0px;fill:#f7ead1;fill-opacity:1;stroke:none;stroke-width:1px;stroke-linecap:butt;stroke-linejoin:miter;stroke-opacity:1"
         id="path5605-0"
         inkscape:connector-curvature="0" />
      <path
         d="m 1673.1564,-1944.1214 -92.2818,0 q -6.0867,0 -6.0867,7.1645 0,17.2478 13.7441,32.6382 13.9405,15.125 29.8443,15.125 9.4246,0 20.8126,-4.7764 11.5842,-5.0416 19.0453,-12.2061 6.6757,-6.3684 10.6026,-6.3684 5.105,0 10.0136,8.4911 4.9086,8.4913 4.9086,17.5132 0,19.1054 -17.671,36.8838 -31.2187,31.5768 -72.0584,31.5768 -41.2322,0 -69.1131,-32.3727 -13.5477,-15.9211 -22.3832,-38.4759 -11.5843,-29.9847 -11.5843,-63.1536 0,-44.579 20.027,-80.1361 17.2783,-30.7808 43.9812,-45.9058 20.027,-11.41 43.392,-11.41 37.3054,0 63.4193,28.6579 13.155,14.3289 21.2051,33.965 9.2282,22.2894 9.2282,43.5175 0,17.2479 -5.3013,28.3926 -5.3013,10.8794 -13.7441,10.8794 z m -87.1768,-49.6207 19.8307,0 q 12.566,0 12.566,-15.6557 0,-14.329 -6.0866,-23.3508 -6.0867,-9.022 -15.9039,-9.022 -10.9953,0 -17.2783,11.6754 -5.8904,10.8794 -5.8904,22.0241 0,7.9606 2.7489,11.1448 2.9451,3.1842 10.0136,3.1842 z"
         style="font-style:normal;font-variant:normal;font-weight:normal;font-stretch:normal;font-size:medium;line-height:125%;font-family:'Cooper Black';-inkscape-font-specification:'Cooper Black, ';letter-spacing:0px;word-spacing:0px;fill:#f7ead1;fill-opacity:1;stroke:none;stroke-width:1px;stroke-linecap:butt;stroke-linejoin:miter;stroke-opacity:1"
         id="path5607-0"
         inkscape:connector-curvature="0" />
      <path
         d="m 1834.6122,-2047.0961 0,85.1777 q 0,56.5197 1.178,65.807 1.3744,9.2873 9.8173,14.329 7.2647,4.2455 9.6208,7.9605 2.5525,3.715 2.5525,10.6141 0,8.7565 -4.7123,15.9211 -4.5159,7.1644 -12.1733,10.0832 -14.1368,5.8377 -47.7117,5.8377 -37.8944,0 -53.2093,-7.695 -7.0684,-3.4496 -11.5842,-10.6141 -4.516,-7.4298 -4.516,-15.3904 0,-6.3684 2.3562,-9.818 2.5524,-3.4495 10.7989,-8.2259 7.6574,-4.5109 9.4245,-24.6777 3.1415,-34.4956 3.1415,-98.1799 0,-64.7456 -2.7488,-83.3202 -2.7489,-18.5745 -13.7441,-27.5965 -8.2465,-6.3684 -11.388,-11.9408 -2.9451,-5.8378 -2.9451,-14.0637 0,-13.0021 9.2282,-22.5548 9.2281,-9.8179 29.4516,-18.0438 13.5477,-5.5725 35.1456,-10.6141 21.5978,-5.0416 31.4151,-5.0416 15.5112,0 15.5112,26.0043 0,8.4913 -1.9635,39.0066 -2.5525,47.4979 -2.9451,87.0353 z"
         style="font-style:normal;font-variant:normal;font-weight:normal;font-stretch:normal;font-size:medium;line-height:125%;font-family:'Cooper Black';-inkscape-font-specification:'Cooper Black, ';letter-spacing:0px;word-spacing:0px;fill:#f7ead1;fill-opacity:1;stroke:none;stroke-width:1px;stroke-linecap:butt;stroke-linejoin:miter;stroke-opacity:1"
         id="path5609-4"
         inkscape:connector-curvature="0" />
      <path
         d="m 119.15241,-1570.2349 q 34.9492,0 61.652,23.6161 25.3285,22.555 25.3285,55.9891 0,23.0856 -11.7807,37.4145 -10.9952,13.5329 -26.5065,13.5329 -16.2966,0 -24.543,-15.9211 -2.5525,-5.0416 -7.4611,-25.739 -5.3012,-22.2894 -20.2234,-22.2894 -10.799,0 -18.260099,12.7368 -7.2647,12.7368 -7.2647,31.3114 0,31.8422 16.885599,56.5199 13.7441,19.9012 34.5566,19.9012 9.8173,0 16.4929,-2.1228 6.6757,-2.3882 17.4747,-9.2873 2.7487,-1.8574 6.0867,-1.8574 6.6756,0 11.7805,8.4913 5.1051,8.4911 5.1051,19.9013 0,11.9407 -7.2648,25.2083 -7.2648,13.0022 -19.0454,22.8202 -25.5248,21.2281 -60.2777,21.2281 -40.446899,0 -68.916799,-31.8421 -36.52003,-40.3334 -36.52003,-102.691 0,-59.9693 33.96753,-99.2412 32.3968,-37.6798 78.734099,-37.6798 z"
         style="font-style:normal;font-variant:normal;font-weight:normal;font-stretch:normal;font-size:medium;line-height:125%;font-family:'Cooper Black';-inkscape-font-specification:'Cooper Black, ';letter-spacing:0px;word-spacing:0px;fill:#f7ead1;fill-opacity:1;stroke:none;stroke-width:1px;stroke-linecap:butt;stroke-linejoin:miter;stroke-opacity:1"
         id="path5611-2"
         inkscape:connector-curvature="0" />
      <path
         d="m 355.45601,-1429.3956 0,143.8203 q 0,46.1711 22.5795,46.1711 5.694,0 11.1917,-4.2457 5.4976,-4.5109 7.6574,-10.8795 4.3196,-12.7368 4.3196,-56.785 0,-43.5176 -2.1598,-59.4387 -0.7854,-6.6337 -2.7488,-9.5526 -1.9634,-3.1843 -7.4611,-7.1645 -11.1917,-7.9605 -11.1917,-20.1667 0,-16.4517 19.2418,-22.8202 36.52,-12.2062 72.0583,-12.2062 19.8308,0 19.8308,28.3927 0,2.9188 -0.1963,11.9407 -0.3927,12.7369 -0.5891,31.0461 l 0,117.0199 q 0,9.0219 11.388,16.4517 9.6209,6.3685 9.6209,18.5746 0,23.8816 -41.8214,36.8838 -24.543,7.6952 -47.5153,7.6952 -9.4245,0 -12.9587,-2.9189 -3.3378,-2.9188 -3.9269,-11.4101 -0.9816,-16.4518 -7.461,-16.4518 -2.3562,0 -4.3196,1.5922 -1.9635,1.3267 -11.977,10.6141 -19.8308,18.3091 -42.6067,18.3091 -37.6981,0 -53.2093,-29.4539 -13.1551,-24.6777 -13.1551,-83.0549 0,-21.7588 0.1964,-37.1492 0,-9.0219 0,-12.2062 0,-22.8202 -3.1415,-33.4342 -2.9452,-10.8794 -10.9953,-16.9825 -7.6574,-5.3069 -9.8172,-8.4912 -1.9634,-3.1843 -1.9634,-8.7566 0,-20.1667 22.5795,-26.8004 38.4835,-11.4102 76.9669,-11.4102 11.5844,0 11.5844,13.2677 z"
         style="font-style:normal;font-variant:normal;font-weight:normal;font-stretch:normal;font-size:medium;line-height:125%;font-family:'Cooper Black';-inkscape-font-specification:'Cooper Black, ';letter-spacing:0px;word-spacing:0px;fill:#f7ead1;fill-opacity:1;stroke:none;stroke-width:1px;stroke-linecap:butt;stroke-linejoin:miter;stroke-opacity:1"
         id="path5613-2"
         inkscape:connector-curvature="0" />
      <path
         d="m 736.09291,-1316.2512 -92.2818,0 q -6.0867,0 -6.0867,7.1644 0,17.2479 13.7441,32.6383 13.9405,15.125 29.8443,15.125 9.4246,0 20.8125,-4.7763 11.5843,-5.0416 19.0454,-12.2062 6.6758,-6.3684 10.6027,-6.3684 5.1049,0 10.0134,8.4912 4.9087,8.4913 4.9087,17.5132 0,19.1053 -17.671,36.8838 -31.2187,31.5768 -72.0583,31.5768 -41.2323,0 -69.1132,-32.3729 -13.5477,-15.921 -22.3833,-38.4759 -11.5843,-29.9846 -11.5843,-63.1536 0,-44.5789 20.0272,-80.136 17.2783,-30.7807 43.9811,-45.9057 20.0271,-11.41 43.3921,-11.41 37.3053,0 63.4191,28.6578 13.1551,14.329 21.2052,33.9649 9.2282,22.2895 9.2282,43.5177 0,17.2477 -5.3013,28.3925 -5.3013,10.8794 -13.7441,10.8794 z m -87.1769,-49.6206 19.8308,0 q 12.566,0 12.566,-15.6558 0,-14.3289 -6.0866,-23.3509 -6.0867,-9.0219 -15.9039,-9.0219 -10.9952,0 -17.2783,11.6755 -5.8903,10.8793 -5.8903,22.0241 0,7.9606 2.7488,11.1447 2.9452,3.1843 10.0135,3.1843 z"
         style="font-style:normal;font-variant:normal;font-weight:normal;font-stretch:normal;font-size:medium;line-height:125%;font-family:'Cooper Black';-inkscape-font-specification:'Cooper Black, ';letter-spacing:0px;word-spacing:0px;fill:#f7ead1;fill-opacity:1;stroke:none;stroke-width:1px;stroke-linecap:butt;stroke-linejoin:miter;stroke-opacity:1"
         id="path5615-0"
         inkscape:connector-curvature="0" />
      <path
         d="m 877.12897,-1500.0715 q 10.4063,0 12.566,3.9803 2.3562,3.9802 4.1233,25.4736 0.9817,11.6755 6.0867,11.6755 3.9268,0 7.461,-7.6951 15.7076,-33.169 41.036,-33.169 17.8673,0 29.2553,15.6558 5.4976,7.6951 9.0318,19.9014 3.5342,11.9407 3.5342,23.0855 0,12.4715 -4.3195,25.739 -4.3196,13.0023 -11.1916,21.4934 -12.5661,16.1865 -30.8261,16.1865 -10.0136,0 -16.8856,-4.7763 -6.6758,-4.7763 -17.671,-19.3707 -4.1233,-5.5724 -7.6575,-5.5724 -5.4976,0 -7.2647,8.4913 -1.5707,8.2259 -1.5707,35.0263 0,40.068 2.1598,54.6623 1.3744,7.9606 3.7305,11.1448 2.5524,2.9188 10.6026,6.1031 17.671,7.1645 17.671,24.943 0,10.8794 -5.694,19.1053 -5.694,7.9605 -15.1185,10.614 -18.849,5.307 -55.3691,5.307 -34.753,0 -52.8166,-8.2259 -16.1003,-7.4298 -16.1003,-25.7391 0,-13.7982 11.7807,-24.6775 5.694,-5.0418 7.8538,-9.022 2.1598,-4.2457 2.9451,-11.41 3.1416,-24.147 3.1416,-89.4234 0,-11.9408 -1.9635,-16.9824 -1.9634,-5.3071 -7.8537,-8.4913 -13.9405,-7.4298 -13.9405,-21.4935 0,-12.7368 9.6209,-21.7588 9.6208,-9.2872 32.2004,-18.3092 30.237,-12.2062 51.4422,-12.4715 z"
         style="font-style:normal;font-variant:normal;font-weight:normal;font-stretch:normal;font-size:medium;line-height:125%;font-family:'Cooper Black';-inkscape-font-specification:'Cooper Black, ';letter-spacing:0px;word-spacing:0px;fill:#f7ead1;fill-opacity:1;stroke:none;stroke-width:1px;stroke-linecap:butt;stroke-linejoin:miter;stroke-opacity:1"
         id="path5617-6"
         inkscape:connector-curvature="0" />
      <path
         d="m 1099.9797,-1437.4798 q 11.977,0 14.9222,2.9189 2.9451,2.6536 2.9451,13.7983 0,9.818 4.7123,9.818 1.9635,0 13.1551,-10.0834 8.4427,-7.6952 21.4015,-12.7368 13.155,-5.307 23.7577,-5.307 24.9357,0 44.5701,23.3509 14.9221,17.7785 23.1686,44.8443 8.6392,28.3926 8.6392,59.704 0,66.8685 -33.3786,110.1207 -25.721,33.6996 -58.5106,33.6996 -16.6892,0 -34.3602,-10.6141 -3.5342,-2.1227 -5.694,-2.1227 -5.8903,0 -5.8903,15.921 0,20.9628 10.4063,30.25 9.6208,8.7566 11.3879,11.6755 1.9635,3.1841 1.9635,10.3486 0,15.9211 -13.1551,24.4124 -13.155,8.7566 -37.1091,8.7566 -42.6067,0 -74.6108,-23.0856 -16.2966,-11.6754 -16.2966,-28.9233 0,-7.9605 2.3562,-12.2061 2.5525,-3.9803 9.6208,-8.4912 10.2099,-6.3684 12.3697,-23.0856 2.3561,-16.7171 3.5342,-96.0571 -1.3744,-65.2764 -3.5342,-73.2369 -0.7853,-2.6535 -2.3561,-3.4495 -1.3744,-0.7961 -9.6208,-2.9189 -6.2831,-1.5921 -10.21,-7.6952 -3.9269,-6.3684 -3.9269,-15.125 0,-10.6141 5.4977,-18.5746 5.4976,-8.2259 17.8673,-15.9211 48.1043,-29.454 76.3779,-29.9847 z m 19.4381,100.3028 -2.9451,72.9716 q -0.1964,4.5109 -0.1964,8.7565 0,8.2259 5.3013,13.2676 5.3012,5.0416 14.1368,5.0416 27.0954,0 27.0954,-60.2346 0,-39.0067 -11.3879,-54.9277 -7.0684,-9.8181 -16.8856,-9.8181 -13.9404,0 -15.1185,24.9431 z"
         style="font-style:normal;font-variant:normal;font-weight:normal;font-stretch:normal;font-size:medium;line-height:125%;font-family:'Cooper Black';-inkscape-font-specification:'Cooper Black, ';letter-spacing:0px;word-spacing:0px;fill:#f7ead1;fill-opacity:1;stroke:none;stroke-width:1px;stroke-linecap:butt;stroke-linejoin:miter;stroke-opacity:1"
         id="path5619-3"
         inkscape:connector-curvature="0" />
      <path
         d="m 1444.5504,-1507.6432 q 35.931,0 63.0265,25.2083 19.438,18.0439 31.2187,46.9671 12.1734,30.2501 12.1734,63.1536 0,57.5812 -39.0726,97.9146 -37.3054,38.4759 -85.4098,38.4759 -46.9262,0 -75.9852,-36.0877 -28.2736,-35.0264 -28.2736,-91.2808 0,-62.6229 34.5567,-102.4256 36.1273,-41.9254 87.7659,-41.9254 z m -15.7076,61.296 q -8.6391,0 -13.9405,8.7566 -5.1049,8.4913 -5.1049,22.8202 0,15.9211 4.3196,43.5177 4.5159,27.3311 10.6025,48.5592 6.0867,21.7587 19.8309,21.7587 17.4746,0 17.4746,-29.9846 0,-22.2895 -4.5159,-50.6821 -4.3196,-28.3925 -10.6026,-46.1711 -6.4794,-18.0439 -18.0637,-18.5746 z"
         style="font-style:normal;font-variant:normal;font-weight:normal;font-stretch:normal;font-size:medium;line-height:125%;font-family:'Cooper Black';-inkscape-font-specification:'Cooper Black, ';letter-spacing:0px;word-spacing:0px;fill:#f7ead1;fill-opacity:1;stroke:none;stroke-width:1px;stroke-linecap:butt;stroke-linejoin:miter;stroke-opacity:1"
         id="path5621-2"
         inkscape:connector-curvature="0" />
    </g>
    <rect
       style="opacity:0.35199998;fill:#f0a9a9;fill-opacity:0;stroke:none;stroke-opacity:1"
       id="rect5722"
       width="2521.3408"
       height="2715.29"
       x="743.47229"
       y="-2042.7451" />
  </g>
</svg>
