<?xml version="1.0" encoding="UTF-8" standalone="no"?>
<!-- Created with Inkscape (http://www.inkscape.org/) -->

<svg
   xmlns:dc="http://purl.org/dc/elements/1.1/"
   xmlns:cc="http://creativecommons.org/ns#"
   xmlns:rdf="http://www.w3.org/1999/02/22-rdf-syntax-ns#"
   xmlns:svg="http://www.w3.org/2000/svg"
   xmlns="http://www.w3.org/2000/svg"
   xmlns:sodipodi="http://sodipodi.sourceforge.net/DTD/sodipodi-0.dtd"
   xmlns:inkscape="http://www.inkscape.org/namespaces/inkscape"
   width="1000"
   height="1000"
   viewBox="0 0 1000 1000"
   id="svg2"
   version="1.1"
   inkscape:version="0.91 r13725"
   sodipodi:docname="agua.svg">
  <defs
     id="defs4" />
  <sodipodi:namedview
     id="base"
     pagecolor="#ffffff"
     bordercolor="#666666"
     borderopacity="1.0"
     inkscape:pageopacity="0.0"
     inkscape:pageshadow="2"
     inkscape:zoom="0.67850877"
     inkscape:cx="495.37393"
     inkscape:cy="556.03019"
     inkscape:document-units="px"
     inkscape:current-layer="layer1"
     showgrid="false"
     units="px"
     inkscape:window-width="1600"
     inkscape:window-height="838"
     inkscape:window-x="-8"
     inkscape:window-y="-8"
     inkscape:window-maximized="1" />
  <metadata
     id="metadata7">
    <rdf:RDF>
      <cc:Work
         rdf:about="">
        <dc:format>image/svg+xml</dc:format>
        <dc:type
           rdf:resource="http://purl.org/dc/dcmitype/StillImage" />
        <dc:title></dc:title>
      </cc:Work>
    </rdf:RDF>
  </metadata>
  <g
     inkscape:label="Capa 1"
     inkscape:groupmode="layer"
     id="layer1"
     transform="translate(0,-52.362161)">
    <path
       style="fill:#2c9fff;fill-rule:evenodd;stroke:none;stroke-width:0.9699412px;stroke-linecap:butt;stroke-linejoin:miter;stroke-opacity:1;fill-opacity:1"
       d="M 196.05855,624.94413 C -128.3637,765.93486 593.56382,752.04555 485.22482,751.8101 -223.3003,750.2703 178.27901,633.58371 196.05855,624.94413 Z"
       id="path3336"
       inkscape:connector-curvature="0"
       sodipodi:nodetypes="csc" />
    <path
       style="fill:#2c9fff;fill-rule:evenodd;stroke:none;stroke-width:0.9699412px;stroke-linecap:butt;stroke-linejoin:miter;stroke-opacity:1;fill-opacity:1"
       d="M 812.06733,624.63753 C 1136.4896,765.62825 414.56206,751.73894 522.90106,751.50349 1231.4261,749.96369 829.84687,633.27711 812.06733,624.63753 Z"
       id="path3336-4"
       inkscape:connector-curvature="0"
       sodipodi:nodetypes="csc" />
    <path
       style="fill:#2cb9ff;fill-rule:evenodd;stroke:none;stroke-width:0.9699412px;stroke-linecap:butt;stroke-linejoin:miter;stroke-opacity:1;fill-opacity:1"
       d="m 325.72195,629.05899 c -325.89607896,95.3023 370.9765,100.57265 262.6375,100.3372 -708.52512,-1.5398 -280.41704,-91.69762 -262.6375,-100.3372 z"
       id="path3336-5"
       inkscape:connector-curvature="0"
       sodipodi:nodetypes="csc" />
    <path
       style="fill:#2cb4ff;fill-rule:evenodd;stroke:none;stroke-width:0.82995057px;stroke-linecap:butt;stroke-linejoin:miter;stroke-opacity:1;fill-opacity:1"
       d="M 707.49953,626.04753 C 983.89846,714.5504 350.7776,704.6922 448.00121,704.5001 1083.8329,703.24381 723.45492,633.0964 707.49953,626.04753 Z"
       id="path3336-42"
       inkscape:connector-curvature="0"
       sodipodi:nodetypes="csc" />
    <g
       id="g4186"
       transform="matrix(0.91883688,0,0,0.88400037,-42.513437,-127.9282)">
      <path
         inkscape:connector-curvature="0"
         id="path4175"
         d="M 552.68261,346.40224 C 478.9916,443.67438 446.91634,475.71163 486.88145,520.89322 531.74166,571.60887 629.48932,519.80018 590.09063,483.66093 544.97565,442.27829 552.6227,346.42092 552.68261,346.40224 Z"
         style="fill:#2c9fff;fill-opacity:1;fill-rule:evenodd;stroke:#2c9fff;stroke-width:1px;stroke-linecap:butt;stroke-linejoin:miter;stroke-opacity:1"
         sodipodi:nodetypes="cssc" />
    </g>
    <path
       style="fill:#2c9fff;fill-opacity:1;fill-rule:evenodd;stroke:#2c9fff;stroke-width:1.28964829px;stroke-linecap:butt;stroke-linejoin:miter;stroke-opacity:1"
       d="m 553.64828,353.91538 c -32.21111,142.77628 -129.95348,175.09124 -87.58514,232.43156 50.30851,68.08635 150.14596,28.29602 146.57105,-46.4863 -3.5749,-74.78235 -58.98591,-185.94526 -58.98591,-185.94526 z"
       id="path4175-6"
       inkscape:connector-curvature="0"
       sodipodi:nodetypes="cssc" />
    <path
       style="fill:#5ec6f8;fill-opacity:1;fill-rule:evenodd;stroke:none;stroke-width:1px;stroke-linecap:butt;stroke-linejoin:miter;stroke-opacity:1"
       d="m 588.05429,504.10102 c -13.26438,54.53135 -32.42405,92.85067 -5.89528,79.58629 26.52876,-13.26438 5.89528,-79.58629 5.89528,-79.58629 z"
       id="path4195"
       inkscape:connector-curvature="0" />
    <path
       style="fill:#5ec6f8;fill-opacity:1;fill-rule:evenodd;stroke:none;stroke-width:1px;stroke-linecap:butt;stroke-linejoin:miter;stroke-opacity:1"
       d="m 410.3962,271.39184 c 16.40031,59.33119 52.61929,64.79826 16.40031,59.33119 -29.30836,-4.42395 -16.40031,-59.33119 -16.40031,-59.33119 z"
       id="path4195-0"
       inkscape:connector-curvature="0"
       sodipodi:nodetypes="csc" />
  </g>
</svg>
