<?xml version="1.0" encoding="UTF-8" standalone="no"?>
<!-- Created with Inkscape (http://www.inkscape.org/) -->

<svg
   xmlns:dc="http://purl.org/dc/elements/1.1/"
   xmlns:cc="http://creativecommons.org/ns#"
   xmlns:rdf="http://www.w3.org/1999/02/22-rdf-syntax-ns#"
   xmlns:svg="http://www.w3.org/2000/svg"
   xmlns="http://www.w3.org/2000/svg"
   xmlns:sodipodi="http://sodipodi.sourceforge.net/DTD/sodipodi-0.dtd"
   xmlns:inkscape="http://www.inkscape.org/namespaces/inkscape"
   width="1000"
   height="1000"
   viewBox="0 0 1000 1000"
   id="svg4212"
   version="1.1"
   inkscape:version="0.91 r13725"
   sodipodi:docname="viento.svg">
  <defs
     id="defs4214" />
  <sodipodi:namedview
     id="base"
     pagecolor="#ffffff"
     bordercolor="#666666"
     borderopacity="1.0"
     inkscape:pageopacity="0.0"
     inkscape:pageshadow="2"
     inkscape:zoom="0.49497475"
     inkscape:cx="431.76033"
     inkscape:cy="595.78097"
     inkscape:document-units="px"
     inkscape:current-layer="layer2"
     showgrid="false"
     units="px"
     inkscape:window-width="1600"
     inkscape:window-height="838"
     inkscape:window-x="-8"
     inkscape:window-y="-8"
     inkscape:window-maximized="1" />
  <metadata
     id="metadata4217">
    <rdf:RDF>
      <cc:Work
         rdf:about="">
        <dc:format>image/svg+xml</dc:format>
        <dc:type
           rdf:resource="http://purl.org/dc/dcmitype/StillImage" />
        <dc:title></dc:title>
      </cc:Work>
    </rdf:RDF>
  </metadata>
  <g
     inkscape:groupmode="layer"
     id="layer2"
     inkscape:label="Capa 2">
    <path
       style="fill:#ffffff;fill-opacity:1;fill-rule:evenodd;stroke:#a2dbf0;stroke-width:1px;stroke-linecap:butt;stroke-linejoin:miter;stroke-opacity:1"
       d="m 696.20138,80.889682 c -50.6216,-29.49757 -39.50848,-66.81793 -124.7504,-35.41024 -55.26924,20.36415 -36.35416,91.183198 -36.35416,91.183198 -43.87368,-35.93081 -107.27501,20.92248 -45.48197,99.0986 39.41397,49.86372 75.7181,20.82674 106.60323,-7.36414 33.02091,-30.14034 22.22727,91.16551 107.31991,-7.61223 52.95779,-61.47477 109.24265,61.3182 147.16622,-7.77628 44.34431,-80.79271 -47.32073,-123.443508 -47.32073,-123.443508 -49.74308,-8.75474 -47.75058,28.156428 -55.55645,-8.99038 -8.79473,-41.8526 -51.62565,0.31498 -51.62565,0.31498 z"
       id="path4809"
       inkscape:connector-curvature="0"
       sodipodi:nodetypes="cssssssssc" />
    <path
       style="fill:#ffffff;fill-opacity:1;fill-rule:evenodd;stroke:#a2dbf0;stroke-width:1px;stroke-linecap:butt;stroke-linejoin:miter;stroke-opacity:1"
       d="m 885.41989,150.83754 c -50.6216,-29.49757 -39.50848,-66.817927 -124.7504,-35.41024 -55.26924,20.36415 -36.35416,91.18321 -36.35416,91.18321 -43.87368,-35.93082 -107.27501,20.92248 -45.48197,99.0986 39.41397,49.86372 75.7181,20.82674 106.60323,-7.36414 33.02091,-30.14034 22.22727,91.16551 107.31991,-7.61223 52.95779,-61.47477 109.2426,61.3182 147.1662,-7.77628 44.3443,-80.79272 -47.32071,-123.44351 -47.32071,-123.44351 -49.74308,-8.75475 -47.75058,28.15642 -55.55645,-8.99039 -8.79473,-41.8526 -51.62565,0.31498 -51.62565,0.31498 z"
       id="path4809-7"
       inkscape:connector-curvature="0"
       sodipodi:nodetypes="cssssssssc" />
    <path
       style="fill:#ffffff;fill-opacity:1;fill-rule:evenodd;stroke:#a2dbf0;stroke-width:1px;stroke-linecap:butt;stroke-linejoin:miter;stroke-opacity:1"
       d="m 661.16602,233.67006 c -50.6216,-29.49757 -39.50848,-66.81793 -124.7504,-35.41024 -55.26923,20.36415 -36.35415,91.1832 -36.35415,91.1832 -43.87368,-35.93082 -107.27501,20.92248 -45.48197,99.0986 39.41397,49.86372 75.71809,20.82674 106.60322,-7.36414 33.02091,-30.14034 22.22727,91.16551 107.31991,-7.61223 52.95779,-61.47477 109.24268,61.3182 147.16618,-7.77628 44.3444,-80.79272 -47.3207,-123.44351 -47.3207,-123.44351 -49.74307,-8.75474 -47.75057,28.15642 -55.55644,-8.99038 -8.79473,-41.8526 -51.62565,0.31498 -51.62565,0.31498 z"
       id="path4809-5"
       inkscape:connector-curvature="0"
       sodipodi:nodetypes="cssssssssc" />
    <path
       style="fill:#ffffff;fill-opacity:1;fill-rule:evenodd;stroke:#a2dbf0;stroke-width:0.53150284px;stroke-linecap:butt;stroke-linejoin:miter;stroke-opacity:1"
       d="m 705.15189,798.08635 c -28.11931,-15.00129 -21.94619,-33.98094 -69.29641,-18.00824 -30.70099,10.3564 -20.19403,46.37214 -20.19403,46.37214 -24.37098,-18.27297 -59.58918,10.64034 -25.26435,50.3976 21.89369,25.35868 42.05993,10.59165 59.21602,-3.7451 18.34247,-15.32818 12.34681,46.36314 59.61412,-3.87128 29.41702,-31.26362 60.68216,31.18399 81.74795,-3.95471 24.63239,-41.08795 -26.28573,-62.77845 -26.28573,-62.77845 -27.63131,-4.45231 -26.52451,14.31924 -30.86052,-4.57215 -4.8853,-21.28456 -28.67705,0.16019 -28.67705,0.16019 z"
       id="path4809-2"
       inkscape:connector-curvature="0"
       sodipodi:nodetypes="cssssssssc" />
    <path
       style="fill:#ffffff;fill-opacity:1;fill-rule:evenodd;stroke:#a2dbf0;stroke-width:0.41743037px;stroke-linecap:butt;stroke-linejoin:miter;stroke-opacity:1"
       d="m 765.15243,767.6185 c -20.95513,-12.41652 -16.35478,-28.12591 -51.64121,-14.90536 -22.87905,8.57195 -15.04903,38.38207 -15.04903,38.38207 -18.16179,-15.12448 -44.40717,8.80698 -18.82755,41.71394 16.31566,20.98931 31.34398,8.76667 44.12907,-3.09982 13.66922,-12.68708 9.20112,38.37463 44.42575,-3.20424 21.92221,-25.8768 45.22168,25.81089 60.92038,-3.2733 18.35661,-34.00837 -19.58871,-51.96152 -19.58871,-51.96152 -20.59146,-3.68517 -19.76665,11.85199 -22.99794,-3.78436 -3.64063,-17.61716 -21.37076,0.13259 -21.37076,0.13259 z"
       id="path4809-23"
       inkscape:connector-curvature="0"
       sodipodi:nodetypes="cssssssssc" />
    <path
       style="fill:#ffffff;fill-opacity:1;fill-rule:evenodd;stroke:#a2dbf0;stroke-width:0.58662295px;stroke-linecap:butt;stroke-linejoin:miter;stroke-opacity:1"
       d="m 847.74531,849.57439 c -28.3688,-18.11337 -22.14091,-41.03042 -69.91125,-21.74412 -30.97338,12.50487 -20.3732,55.99224 -20.3732,55.99224 -24.58721,-22.06379 -60.11789,12.84772 -25.48851,60.85279 22.08795,30.61949 42.43311,12.78893 59.74141,-4.52205 18.50522,-18.50807 12.45637,55.98137 60.14306,-4.67439 29.67802,-37.74939 61.22057,37.65324 82.47328,-4.77513 24.85095,-49.61182 -26.51896,-75.8021 -26.51896,-75.8021 -27.87648,-5.37596 -26.75986,17.28983 -31.13434,-5.52066 -4.92865,-25.70013 -28.93149,0.19342 -28.93149,0.19342 z"
       id="path4809-4"
       inkscape:connector-curvature="0"
       sodipodi:nodetypes="cssssssssc" />
    <path
       style="fill:#ffffff;fill-opacity:1;fill-rule:evenodd;stroke:#a2dbf0;stroke-width:1px;stroke-linecap:butt;stroke-linejoin:miter;stroke-opacity:1"
       d="m 168.21158,708.44175 c -50.6216,-29.49757 -39.50848,-66.81793 -124.750398,-35.41024 -55.26924,20.36415 -36.3541597,91.1832 -36.3541597,91.1832 -43.8736803,-35.93081 -107.2750023,20.92248 -45.4819703,99.0986 39.4139703,49.86372 75.7181,20.82674 106.60323,-7.36414 33.020908,-30.14034 22.22727,91.16551 107.319908,-7.61223 52.95779,-61.47477 109.24265,61.3182 147.16622,-7.77628 44.34431,-80.79271 -47.32073,-123.44351 -47.32073,-123.44351 -49.74308,-8.75474 -47.75058,28.15643 -55.55645,-8.99038 -8.79473,-41.8526 -51.62565,0.31498 -51.62565,0.31498 z"
       id="path4809-71"
       inkscape:connector-curvature="0"
       sodipodi:nodetypes="cssssssssc" />
    <path
       style="fill:#ffffff;fill-opacity:1;fill-rule:evenodd;stroke:#a2dbf0;stroke-width:0.39520821px;stroke-linecap:butt;stroke-linejoin:miter;stroke-opacity:1"
       d="m 577.62242,867.02413 c -18.39417,-12.67925 -14.35604,-28.72106 -45.33007,-15.22076 -20.08297,8.75334 -13.20987,39.19425 -13.20987,39.19425 -15.94221,-15.44453 -38.98011,8.99333 -16.52661,42.5966 14.3217,21.43345 27.51339,8.95218 38.736,-3.16541 11.99869,-12.95554 8.07664,39.18663 38.99643,-3.27204 19.24307,-26.42436 39.69508,26.35705 53.47522,-3.34256 16.11323,-34.72799 -17.19475,-53.06104 -17.19475,-53.06104 -18.07495,-3.76314 -17.35094,12.10278 -20.18733,-3.86443 -3.19571,-17.98995 -18.75902,0.13539 -18.75902,0.13539 z"
       id="path4809-1"
       inkscape:connector-curvature="0"
       sodipodi:nodetypes="cssssssssc" />
    <path
       style="fill:#ffffff;fill-opacity:1;fill-rule:evenodd;stroke:#a2dbf0;stroke-width:0.66328919px;stroke-linecap:butt;stroke-linejoin:miter;stroke-opacity:1"
       d="m 727.49523,836.35374 c -32.97394,-19.92311 -25.73507,-45.12985 -81.26002,-23.91662 -36.00131,13.75426 -23.68039,61.58653 -23.68039,61.58653 -28.57848,-24.26823 -69.87688,14.13136 -29.62608,66.93271 25.6735,33.67872 49.3213,14.0667 69.43929,-4.97385 21.50918,-20.35725 14.47841,61.57455 69.90612,-5.14142 34.49569,-41.521 71.15857,41.41525 95.86125,-5.25222 28.88503,-54.56864 -30.82381,-83.37563 -30.82381,-83.37563 -32.40169,-5.91309 -31.10381,19.01727 -36.18841,-6.07224 -5.72871,-28.26789 -33.62795,0.21274 -33.62795,0.21274 z"
       id="path4809-26"
       inkscape:connector-curvature="0"
       sodipodi:nodetypes="cssssssssc" />
  </g>
  <g
     inkscape:label="Capa 1"
     inkscape:groupmode="layer"
     id="layer1"
     transform="translate(0,-52.362161)">
    <path
       style="fill:#cdcdcd;fill-rule:evenodd;stroke:none;stroke-width:0.45869705px;stroke-linecap:butt;stroke-linejoin:miter;stroke-opacity:1;fill-opacity:1"
       d="m 780.29734,311.94618 c -63.39404,1.41347 -65.99024,7.09175 -112.45076,-4.23906 -92.11821,-22.46583 -39.22139,-153.58853 -7.25846,-88.89713 9.38979,19.00448 25.25057,-28.52969 6.70582,-40.57105 -43.52829,-28.2635 -120.62072,86.72399 -16.38199,137.21523 29.80403,14.43651 129.38539,-3.50799 129.38539,-3.50799 z"
       id="path4226"
       inkscape:connector-curvature="0"
       sodipodi:nodetypes="cssssc" />
    <path
       style="fill:#cdcdcd;fill-rule:evenodd;stroke:none;stroke-width:0.45869705px;stroke-linecap:butt;stroke-linejoin:miter;stroke-opacity:1;fill-opacity:1"
       d="m 769.6146,374.43897 c -56.20579,29.35494 -61.21992,25.6345 -96.44429,57.97968 -69.84008,64.13144 39.76727,153.44809 36.54298,81.36337 -0.9472,-21.17644 35.88367,12.8022 25.45222,32.29802 -24.48474,45.76063 -147.49722,-17.74762 -80.566,-112.27426 19.13703,-27.02716 115.01509,-59.36681 115.01509,-59.36681 z"
       id="path4226-6"
       inkscape:connector-curvature="0"
       sodipodi:nodetypes="cssssc" />
    <path
       style="fill:#cdcdcd;fill-opacity:1;fill-rule:evenodd;stroke:none;stroke-width:0.68513209px;stroke-linecap:butt;stroke-linejoin:miter;stroke-opacity:1"
       d="M 527.22984,390.02245 C 424.3634,391.96583 416.91362,388.80914 344.76144,361.9708 207.40751,310.87946 281.11879,150.80176 332.98349,239.74604 c 15.23635,26.12928 40.97287,-39.2255 10.88121,-55.78118 -70.63125,-38.85952 -195.7254,119.23691 -26.58227,188.65737 48.36156,19.84878 209.94741,17.40022 209.94741,17.40022 z"
       id="path4226-9"
       inkscape:connector-curvature="0"
       sodipodi:nodetypes="cssssc" />
    <path
       style="fill:#cdcdcd;fill-opacity:1;fill-rule:evenodd;stroke:none;stroke-width:0.68513209px;stroke-linecap:butt;stroke-linejoin:miter;stroke-opacity:1"
       d="M 592.72799,399.17226 C 501.52557,439.5324 353.4,533.43683 353.4,533.43683 237.15697,617.72853 417.92842,744.41278 412.69652,645.30341 411.15955,616.1879 470.92321,662.90517 453.99661,689.71 414.2664,752.62634 214.66001,665.30878 323.26606,535.34399 354.31879,498.18432 592.72799,399.17226 592.72799,399.17226 Z"
       id="path4226-6-0"
       inkscape:connector-curvature="0"
       sodipodi:nodetypes="cssssc" />
    <path
       style="fill:#cdcdcd;fill-opacity:1;fill-rule:evenodd;stroke:none;stroke-width:0.82037598px;stroke-linecap:butt;stroke-linejoin:miter;stroke-opacity:1"
       d="m 318.17558,424.56639 c -111.29549,-42.38009 -117.4195,-25.13956 -191.095,-75.72636 -146.077919,-100.2995 19.60415,-266.077201 33.9842,-141.43618 4.22444,36.61597 62.17588,-27.279 37.56593,-59.34275 -57.76457,-75.260098 -265.386134,52.05362 -116.084808,205.13484 42.688358,43.76912 235.629678,71.37045 235.629678,71.37045 z"
       id="path4226-7"
       inkscape:connector-curvature="0"
       sodipodi:nodetypes="cssssc" />
    <path
       style="fill:#cdcdcd;fill-opacity:1;fill-rule:evenodd;stroke:none;stroke-width:0.82037598px;stroke-linecap:butt;stroke-linejoin:miter;stroke-opacity:1"
       d="m 307.13798,481.23465 c -105.56604,49.99333 -127.10544,67.90084 -193.26404,122.98674 -131.174032,109.2199 54.48805,265.37253 48.43217,142.60753 -1.77903,-36.06476 67.39692,21.80296 47.80452,55.00571 C 164.12324,879.76782 -66.919486,771.60917 58.791104,610.62437 94.734379,564.5954 307.13798,481.23465 307.13798,481.23465 Z"
       id="path4226-6-5"
       inkscape:connector-curvature="0"
       sodipodi:nodetypes="cssssc" />
  </g>
</svg>
