<?xml version="1.0" encoding="UTF-8" standalone="no"?>
<!-- Created with Inkscape (http://www.inkscape.org/) -->

<svg
   xmlns:dc="http://purl.org/dc/elements/1.1/"
   xmlns:cc="http://creativecommons.org/ns#"
   xmlns:rdf="http://www.w3.org/1999/02/22-rdf-syntax-ns#"
   xmlns:svg="http://www.w3.org/2000/svg"
   xmlns="http://www.w3.org/2000/svg"
   xmlns:sodipodi="http://sodipodi.sourceforge.net/DTD/sodipodi-0.dtd"
   xmlns:inkscape="http://www.inkscape.org/namespaces/inkscape"
   width="1000"
   height="1000"
   viewBox="0 0 1000 1000"
   id="svg4940"
   version="1.1"
   inkscape:version="0.91 r13725"
   sodipodi:docname="árbol.svg"
   inkscape:export-filename="C:\Users\SisAdmin1\Pictures\elementos\arbol.png"
   inkscape:export-xdpi="104.32941"
   inkscape:export-ydpi="104.32941">
  <defs
     id="defs4942" />
  <sodipodi:namedview
     id="base"
     pagecolor="#ffffff"
     bordercolor="#666666"
     borderopacity="1.0"
     inkscape:pageopacity="0.0"
     inkscape:pageshadow="2"
     inkscape:zoom="0.49497475"
     inkscape:cx="176.97573"
     inkscape:cy="549.59236"
     inkscape:document-units="px"
     inkscape:current-layer="layer1"
     showgrid="false"
     units="px"
     inkscape:window-width="1600"
     inkscape:window-height="838"
     inkscape:window-x="-8"
     inkscape:window-y="-8"
     inkscape:window-maximized="1" />
  <metadata
     id="metadata4945">
    <rdf:RDF>
      <cc:Work
         rdf:about="">
        <dc:format>image/svg+xml</dc:format>
        <dc:type
           rdf:resource="http://purl.org/dc/dcmitype/StillImage" />
        <dc:title></dc:title>
      </cc:Work>
    </rdf:RDF>
  </metadata>
  <g
     inkscape:groupmode="layer"
     id="layer4"
     inkscape:label="Capa 3">
    <ellipse
       style="opacity:1;fill:#23c052;fill-opacity:1;stroke:none;stroke-width:1.0327909;stroke-opacity:1"
       id="path4969-0-3"
       cx="407.63058"
       cy="138.10817"
       rx="83.826263"
       ry="80.290726" />
    <ellipse
       style="opacity:1;fill:#23c052;fill-opacity:1;stroke:none;stroke-width:1.2521956;stroke-opacity:1"
       id="path4973-6"
       cx="482.38187"
       cy="157.30107"
       rx="70.584579"
       ry="68.564278" />
    <path
       style="fill:#2b1100;fill-rule:evenodd;stroke:none;stroke-width:1px;stroke-linecap:butt;stroke-linejoin:miter;stroke-opacity:1"
       d="M 94.954339,979.79695 C 232.33509,852.51773 171.72594,894.94414 273.75134,844.43651 c 71.1966,-35.24584 72.73098,-4.04061 105.05587,-10.10153 32.32488,-6.06092 104.04571,-63.63961 161.6244,-47.47717 57.5787,16.16244 119.198,-18.18275 218.19295,51.51778 98.99495,69.70053 125.25892,61.61931 146.47212,107.07617 21.21321,45.45686 51.51778,55.55844 42.42641,71.72084 -9.09137,16.1624 -800.7331,14.5229 -830.34539,12.1218 -48.888125,-3.964 -25.428889,-47.53852 -22.223361,-49.49745 z"
       id="path5751"
       inkscape:connector-curvature="0"
       sodipodi:nodetypes="csssssssc" />
  </g>
  <g
     inkscape:label="Capa 1"
     inkscape:groupmode="layer"
     id="layer1"
     transform="translate(0,-52.362161)">
    <path
       style="fill:#917c6f;fill-opacity:1;fill-rule:evenodd;stroke:none;stroke-width:1px;stroke-linecap:butt;stroke-linejoin:miter;stroke-opacity:1"
       d="M 267.36333,1021.5427 C 424.50619,844.39988 438.7919,944.39988 424.50619,844.39988 c -14.28572,-100 69.92373,-312.89208 8.39811,-343.43656 -139.01862,-69.01599 -156.96954,-305.7159 -156.96954,-273.7063 0,27.63228 149.53982,325.76835 202.85714,251.42858 34.32847,-47.86381 60,-180.00001 57.14286,-280.00001 -2.72717,-95.45118 29.66569,139.24727 -21.70341,262.6541 -24.10567,57.91036 213.13198,-76.93981 213.13198,-76.93981 -76.06686,114.11158 -184.35817,69.18423 -198.67296,146.31834 -5.82871,31.40755 -81.32704,313.68166 -1.32704,327.96738 80,14.28571 222.4913,128.21628 208.57143,131.42856 0,0 -93.4237,-84.80732 -167.76433,-84.79333 -50.74037,0.01 -81.71759,-26.67248 -80.95068,12.1813 0.69326,35.12255 28.59034,7.92427 34.42929,115.46917 2.00955,37.013 -45.45561,-101.23455 -82.85714,-102.85713 -23.01338,-0.99838 -59.1878,-5.92244 -171.42857,91.42853 z"
       id="path4948"
       inkscape:connector-curvature="0"
       sodipodi:nodetypes="cssssssssssssssc" />
    <path
       style="fill:#6c5d53;fill-rule:evenodd;stroke:none;stroke-width:1.19612479px;stroke-linecap:butt;stroke-linejoin:miter;stroke-opacity:1"
       d="m 492.15786,489.73913 c -14.20724,35.7599 -20.12692,27.12821 -13.02331,59.18881 7.10363,32.06061 7.10363,56.72261 -4.73574,75.21912 -11.83936,18.49649 -14.20724,35.7599 -14.20724,57.9557 0,22.1958 -1.18394,34.52681 -9.47149,50.55711 -8.28756,16.03029 -10.65544,38.2261 -2.36788,54.2564 8.28756,16.03031 23.67874,-23.4289 23.67874,-30.8275 0,-7.39861 -1.18393,-20.9627 -9.47149,-12.33101 -8.28756,8.63171 -1.18394,22.19581 -1.18394,14.79721 0,-7.3986 3.5518,0 -3.55181,7.3986 -7.10363,7.3986 -2.36788,-30.8275 3.55181,-34.5268 5.91968,-3.6993 1.18394,-2.46621 4.73575,-45.62471 3.5518,-43.15851 31.96628,-80.15151 30.78235,-101.11421 -1.18393,-20.96271 -15.39118,-49.32401 -11.83936,-60.42191 3.5518,-11.0979 7.10361,-34.52681 7.10361,-34.52681 z"
       id="path4967"
       inkscape:connector-curvature="0"
       sodipodi:nodetypes="csssssssssssssc" />
    <ellipse
       style="opacity:1;fill:#23c052;fill-opacity:1;stroke:none;stroke-opacity:1"
       id="path5001"
       cx="550.02808"
       cy="370.00409"
       rx="40.911179"
       ry="34.850262" />
    <ellipse
       style="opacity:1;fill:#23c052;fill-opacity:1;stroke:none;stroke-opacity:1"
       id="path5001-7"
       cx="514.1676"
       cy="343.23511"
       rx="40.911179"
       ry="34.850262" />
    <ellipse
       style="opacity:1;fill:#23c052;fill-opacity:1;stroke:none;stroke-opacity:1"
       id="path5001-9"
       cx="560.63464"
       cy="310.91019"
       rx="40.911179"
       ry="34.850262" />
    <ellipse
       style="opacity:1;fill:#23c052;fill-opacity:1;stroke:none;stroke-opacity:1"
       id="path5001-8"
       cx="518.20825"
       cy="230.09799"
       rx="40.911179"
       ry="34.850262" />
    <ellipse
       style="opacity:1;fill:#23c052;fill-opacity:1;stroke:none;stroke-opacity:1"
       id="path5001-3"
       cx="547.50269"
       cy="193.73248"
       rx="40.911179"
       ry="34.850262" />
    <ellipse
       style="opacity:1;fill:#23c052;fill-opacity:1;stroke:none;stroke-opacity:1"
       id="path5001-87"
       cx="568.71588"
       cy="245.25026"
       rx="40.911179"
       ry="34.850262" />
    <ellipse
       style="opacity:1;fill:#34b85c;fill-opacity:1;stroke:none;stroke-width:1.0327909;stroke-opacity:1"
       id="path4969-0-9"
       cx="293.48334"
       cy="289.4653"
       rx="83.826263"
       ry="80.290726" />
    <ellipse
       style="opacity:1;fill:#34b85c;fill-opacity:1;stroke:none;stroke-width:1.1160593;stroke-opacity:1"
       id="path4971-7"
       cx="241.46049"
       cy="323.81046"
       rx="68.127266"
       ry="58.530819" />
    <ellipse
       style="opacity:1;fill:#34b85c;fill-opacity:1;stroke:none;stroke-width:1.2521956;stroke-opacity:1"
       id="path4973-66"
       cx="-480.14319"
       cy="204.11893"
       rx="69.608231"
       ry="79.363297"
       transform="scale(-1,1)" />
  </g>
  <g
     inkscape:groupmode="layer"
     id="layer3"
     inkscape:label="Capa 2">
    <ellipse
       style="opacity:1;fill:#23c052;fill-opacity:1;stroke:none;stroke-width:1.2521956;stroke-opacity:1"
       id="path4973"
       cx="384.8681"
       cy="367.6445"
       rx="70.584579"
       ry="68.564278" />
    <ellipse
       style="opacity:1;fill:#23c052;fill-opacity:1;stroke:none;stroke-width:1.1160593;stroke-opacity:1"
       id="path4971"
       cx="258.09396"
       cy="382.79678"
       rx="68.127266"
       ry="58.530819" />
    <ellipse
       style="opacity:1;fill:#23c052;fill-opacity:1;stroke:none;stroke-width:1.0327909;stroke-opacity:1"
       id="path4969-0"
       cx="310.11682"
       cy="348.45163"
       rx="83.826263"
       ry="80.290726" />
    <ellipse
       style="opacity:1;fill:#34b85c;fill-opacity:1;stroke:none;stroke-width:1.2521956;stroke-opacity:1"
       id="path4973-4"
       cx="368.23462"
       cy="256.29602"
       rx="70.584579"
       ry="68.564278" />
    <ellipse
       style="opacity:1;fill:#23c052;fill-opacity:1;stroke:none;stroke-width:1.1160593;stroke-opacity:1"
       id="path4971-0"
       cx="355.60773"
       cy="172.45332"
       rx="68.127266"
       ry="58.530819" />
    <ellipse
       style="opacity:1;fill:#35d665;fill-opacity:1;stroke:none;stroke-width:1.2521956;stroke-opacity:1"
       id="path4973-7"
       cx="553.09253"
       cy="279.52951"
       rx="70.584579"
       ry="68.564278" />
    <ellipse
       style="opacity:1;fill:#35d665;fill-opacity:1;stroke:none;stroke-width:1.1160593;stroke-opacity:1"
       id="path4971-1"
       cx="426.31842"
       cy="294.68179"
       rx="68.127266"
       ry="58.530819" />
    <ellipse
       style="opacity:1;fill:#35d665;fill-opacity:1;stroke:none;stroke-width:1.0327909;stroke-opacity:1"
       id="path4969-0-6"
       cx="478.34125"
       cy="260.33664"
       rx="83.826263"
       ry="80.290726" />
    <ellipse
       style="opacity:1;fill:#34b85c;fill-opacity:1;stroke:none;stroke-width:1.1160593;stroke-opacity:1"
       id="path4971-9"
       cx="-605.1637"
       cy="169.29552"
       rx="67.184906"
       ry="67.749542"
       transform="scale(-1,1)" />
    <ellipse
       style="opacity:1;fill:#34b85c;fill-opacity:1;stroke:none;stroke-width:1.0327909;stroke-opacity:1"
       id="path4969-0-0"
       cx="-553.86047"
       cy="129.54094"
       rx="82.666756"
       ry="92.936684"
       transform="scale(-1,1)" />
    <ellipse
       style="opacity:1;fill:#59c078;fill-opacity:1;stroke:none;stroke-width:1.2521956;stroke-opacity:1"
       id="path4973-8"
       cx="356.30112"
       cy="600.50159"
       rx="70.584579"
       ry="68.564278"
       transform="matrix(0,1,1,0,0,0)" />
    <ellipse
       style="opacity:1;fill:#59c078;fill-opacity:1;stroke:none;stroke-width:1.1160593;stroke-opacity:1"
       id="path4971-8"
       cx="371.4534"
       cy="727.27588"
       rx="68.127266"
       ry="58.530819"
       transform="matrix(0,1,1,0,0,0)" />
    <ellipse
       style="opacity:1;fill:#59c078;fill-opacity:1;stroke:none;stroke-width:1.0327909;stroke-opacity:1"
       id="path4969-0-8"
       cx="337.10825"
       cy="675.25299"
       rx="83.826263"
       ry="80.290726"
       transform="matrix(0,1,1,0,0,0)" />
    <ellipse
       style="opacity:1;fill:#23c052;fill-opacity:1;stroke:none;stroke-width:1.2521956;stroke-opacity:1"
       id="path4973-9"
       cx="709.6662"
       cy="240.13356"
       rx="70.584579"
       ry="68.564278" />
    <ellipse
       style="opacity:1;fill:#23c052;fill-opacity:1;stroke:none;stroke-width:1.1160593;stroke-opacity:1"
       id="path4971-5"
       cx="582.89203"
       cy="255.28581"
       rx="68.127266"
       ry="58.530819" />
    <ellipse
       style="opacity:1;fill:#23c052;fill-opacity:1;stroke:none;stroke-width:1.0327909;stroke-opacity:1"
       id="path4969-0-4"
       cx="634.91492"
       cy="220.94067"
       rx="83.826263"
       ry="80.290726" />
  </g>
</svg>
